<svg width="512" height="512" viewBox="0 0 550 550" fill="none" xmlns="http://www.w3.org/2000/svg">
<path fill="#2A3382" 
	d="
M329.009216,463.913879 
	C302.438690,468.913208 275.935547,468.343201 249.228683,462.404236 
	C252.041092,457.027252 255.084900,452.177704 258.220123,447.388031 
	C258.746307,446.584167 259.679535,446.051422 260.405365,445.372742 
	C263.913971,442.091675 267.754608,439.092102 270.850891,435.458710 
	C277.563812,427.581451 285.382019,421.947876 296.055420,421.344269 
	C299.138733,424.949860 301.540222,429.627472 307.021515,428.390411 
	C311.160706,427.456268 312.502655,429.182220 313.813232,432.676849 
	C316.337006,439.406342 318.929169,446.201294 322.447266,452.430084 
	C324.336060,455.774292 328.206451,457.999298 331.314758,460.850464 
	C330.684937,461.687317 329.847076,462.800598 329.009216,463.913879 
z"/>
<path fill="#B789F8" 
	d="
M504.805237,240.982513 
	C504.214233,253.883041 503.619873,266.783417 503.040253,279.684448 
	C503.003418,280.504517 503.081116,281.329742 502.803864,282.352783 
	C500.244171,279.108002 498.478638,275.175507 495.638611,272.306671 
	C485.930054,262.499725 481.664948,249.506943 474.981171,237.954437 
	C472.269257,233.267044 470.587830,227.907150 468.960999,222.690018 
	C467.369995,217.587769 463.565186,215.952072 458.665833,215.037476 
	C456.781158,215.995789 455.098083,216.719177 453.741028,217.838043 
	C449.711792,221.159973 445.810944,224.637589 441.859894,228.054352 
	C442.354309,226.588455 442.440613,224.719696 443.417480,223.730026 
	C446.728699,220.375397 450.355042,217.331879 454.454590,213.919922 
	C455.359711,213.364670 455.671265,213.058975 455.982819,212.753296 
	C455.982819,212.753296 455.953217,212.971771 456.097504,212.819519 
	C456.483490,212.377411 456.725189,212.087540 456.966888,211.797684 
	C456.966888,211.797684 456.946136,211.922501 457.282593,211.949417 
	C460.189819,210.679718 463.132385,209.820160 465.263885,208.007111 
	C472.591705,201.774170 479.582947,195.147491 486.811890,188.795410 
	C490.082611,185.921432 492.027893,186.401489 493.264313,190.614487 
	C495.696259,198.901260 498.015320,207.236862 499.933807,215.654221 
	C501.843170,224.031906 503.203949,232.534622 504.805237,240.982513 
z"/>
<path fill="#2185F3" 
	d="
M194.111710,137.037384 
	C177.807816,151.523956 164.350586,168.217026 154.223602,187.847351 
	C150.464294,186.328400 150.094437,189.090820 148.783279,190.924789 
	C147.219162,193.112625 145.340286,195.226410 143.180222,196.798599 
	C140.536118,198.723099 137.446945,200.031174 134.571838,201.644302 
	C129.040466,204.747726 123.524307,207.878265 118.061211,210.635040 
	C119.456421,207.443527 120.408516,204.340332 122.198067,201.835464 
	C128.226135,193.397888 134.565155,185.182846 140.752274,176.858170 
	C141.912689,175.296844 142.921326,173.622696 144.286469,171.825272 
	C150.126465,163.932343 155.704208,156.232040 161.225647,148.491562 
	C165.412292,142.622375 169.476974,136.665787 173.694489,130.819199 
	C175.917297,127.737808 178.007477,124.439850 180.754333,121.880112 
	C188.912506,114.277657 193.324051,104.232002 199.287842,94.870354 
	C200.385620,94.492599 201.193115,94.247520 202.149933,94.338058 
	C202.147842,96.551849 201.962616,98.428040 201.853226,100.308655 
	C201.701691,102.913879 201.509109,105.522850 201.520477,108.129410 
	C201.529007,110.086227 201.831055,112.041756 201.985931,114.377930 
	C200.593704,119.127953 199.507248,123.435143 195.296371,126.449394 
	C191.355362,129.270493 191.254776,133.628113 194.111710,137.037384 
z"/>
<path fill="#263D91" 
	d="
M221.940735,455.380768 
	C210.049973,450.146820 198.159210,444.912872 186.342789,439.209106 
	C191.907135,433.466095 197.397141,428.192902 203.175583,422.753052 
	C211.318787,415.187317 219.099670,407.706451 227.102539,400.471130 
	C228.404861,399.293701 230.958649,398.304474 232.475174,398.759003 
	C240.726974,401.232239 248.834976,404.185150 256.990173,407.372925 
	C255.417023,411.872467 254.971893,417.269501 252.046432,419.807892 
	C245.490402,425.496399 237.032623,428.919983 232.229263,436.800262 
	C230.372391,439.846619 227.790283,442.465912 226.060837,445.570679 
	C224.345474,448.650238 223.287201,452.095764 221.940735,455.380768 
z"/>
<path fill="#283788" 
	d="
M222.228912,455.582458 
	C223.287201,452.095764 224.345474,448.650238 226.060837,445.570679 
	C227.790283,442.465912 230.372391,439.846619 232.229263,436.800262 
	C237.032623,428.919983 245.490402,425.496399 252.046432,419.807892 
	C254.971893,417.269501 255.417023,411.872467 257.400391,407.383087 
	C271.210815,408.293854 284.608765,409.594421 298.006195,411.317200 
	C297.335083,414.827515 296.664490,417.915588 295.993896,421.003662 
	C285.382019,421.947876 277.563812,427.581451 270.850891,435.458710 
	C267.754608,439.092102 263.913971,442.091675 260.405365,445.372742 
	C259.679535,446.051422 258.746307,446.584167 258.220123,447.388031 
	C255.084900,452.177704 252.041092,457.027252 248.888702,462.251099 
	C240.046219,460.358429 231.281647,458.071289 222.228912,455.582458 
z"/>
<path fill="#2162CC" 
	d="
M265.084564,251.430908 
	C265.027405,251.720856 264.860931,251.918991 264.078735,251.872650 
	C261.857727,250.325607 260.143127,248.931259 258.428528,247.536896 
	C257.636505,250.057205 256.765106,252.556946 256.103607,255.111053 
	C255.919281,255.822784 256.355743,256.695312 256.507416,257.494049 
	C256.507416,257.494049 256.168884,257.431396 255.947281,257.445862 
	C255.512711,257.811401 255.299728,258.162506 255.086761,258.513611 
	C235.716705,271.781860 216.394196,285.120300 196.959747,298.293579 
	C184.140228,306.983032 171.159760,315.435089 157.536987,323.976410 
	C155.532867,321.266663 154.243149,318.573944 153.141754,315.610474 
	C157.843277,311.751556 162.265488,308.041321 166.886215,304.597443 
	C182.991165,292.594208 199.171463,280.692139 215.310089,268.734009 
	C226.245163,260.631531 237.158356,252.499573 248.400620,244.219910 
	C251.460953,242.294006 254.201965,240.528946 256.964783,239.142975 
	C258.865753,241.784927 260.716858,244.071976 262.634338,246.301941 
	C263.849182,247.714752 265.162842,249.042572 266.432190,250.408493 
	C266.432190,250.408493 266.160919,250.347641 265.943237,250.384613 
	C265.511902,250.758041 265.298248,251.094467 265.084564,251.430908 
M254.857880,243.545578 
	C254.913239,243.839722 254.968597,244.133865 255.023941,244.428009 
	C255.091248,244.136414 255.158554,243.844818 254.857880,243.545578 
z"/>
<path fill="#3B3796" 
	d="
M385.013947,445.877716 
	C374.202332,450.060638 363.390747,454.243561 352.377350,458.148376 
	C352.452423,456.450287 353.221222,454.914215 352.918213,453.631195 
	C351.802582,448.906616 350.367493,444.255219 348.973877,439.599884 
	C348.526062,438.103943 348.232635,436.205688 347.174835,435.320740 
	C344.791840,433.327057 342.089447,431.624512 339.305084,430.225250 
	C336.138458,428.633881 334.273376,426.809326 333.682556,422.890778 
	C333.236847,419.934479 330.514282,417.341522 328.892517,414.536316 
	C327.552765,412.218903 326.340942,409.827515 325.397675,407.363190 
	C332.131592,405.367065 338.540222,403.476685 344.971039,401.981934 
	C345.137665,404.868683 346.179199,405.870636 348.860596,405.291504 
	C355.023193,403.960388 359.872101,406.030487 363.275024,411.404999 
	C363.709106,412.090576 364.482910,412.567322 364.888794,413.263519 
	C368.618835,419.661224 372.268616,426.105865 376.017395,432.492432 
	C377.376312,434.807556 378.914642,437.019531 380.416534,439.247925 
	C381.919434,441.477814 383.479126,443.669373 385.013947,445.877716 
z"/>
<path fill="#3177E5" 
	d="
M263.108368,104.222931 
	C251.980804,107.784050 240.853256,111.345177 229.146027,114.756950 
	C227.522064,114.483177 226.477737,114.358749 224.790161,114.157692 
	C229.277298,107.113365 233.462448,100.621124 237.561829,94.075165 
	C239.667099,90.713417 241.116394,86.797363 243.733627,83.926247 
	C252.056000,74.796608 260.944305,66.183548 269.288666,57.072956 
	C272.936249,53.090431 275.794464,48.384960 279.432587,43.960068 
	C288.571167,43.959393 297.288300,44.006439 305.945923,44.399818 
	C301.561279,49.632568 297.502930,54.791534 292.851379,59.344517 
	C284.945892,67.082466 276.148804,73.966011 268.715607,82.111336 
	C263.184570,88.172226 259.216827,95.659729 254.161682,103.086525 
	C258.203796,103.599953 260.656067,103.911446 263.108368,104.222931 
z"/>
<path fill="#34348C" 
	d="
M325.072418,407.468903 
	C326.340942,409.827515 327.552765,412.218903 328.892517,414.536316 
	C330.514282,417.341522 333.236847,419.934479 333.682556,422.890778 
	C334.273376,426.809326 336.138458,428.633881 339.305084,430.225250 
	C342.089447,431.624512 344.791840,433.327057 347.174835,435.320740 
	C348.232635,436.205688 348.526062,438.103943 348.973877,439.599884 
	C350.367493,444.255219 351.802582,448.906616 352.918213,453.631195 
	C353.221222,454.914215 352.452423,456.450287 351.957458,458.195374 
	C344.430725,460.323578 337.122009,462.126678 329.411255,463.921844 
	C329.847076,462.800598 330.684937,461.687317 331.314758,460.850464 
	C328.206451,457.999298 324.336060,455.774292 322.447266,452.430084 
	C318.929169,446.201294 316.337006,439.406342 313.813232,432.676849 
	C312.502655,429.182220 311.160706,427.456268 307.021515,428.390411 
	C301.540222,429.627472 299.138733,424.949860 296.055450,421.344269 
	C296.664490,417.915588 297.335083,414.827515 298.435791,411.256561 
	C307.601379,409.672089 316.336914,408.570496 325.072418,407.468903 
z"/>
<path fill="#5042B2" 
	d="
M442.247040,404.155365 
	C439.929352,406.823761 437.858398,409.768982 435.241180,412.101257 
	C430.223267,416.572815 424.895142,420.696289 419.343506,424.717163 
	C418.673859,423.729340 418.509338,422.471375 418.016144,422.325653 
	C411.094818,420.280365 410.817566,415.040100 410.693024,409.054565 
	C410.643982,406.696045 408.038879,404.256348 406.292450,402.100983 
	C404.026306,399.304230 401.310944,396.870575 399.055969,394.065948 
	C396.752197,391.200653 394.867035,388.001953 392.618652,385.088074 
	C390.868439,382.819733 388.842072,380.764435 387.180664,378.419312 
	C393.585510,372.466797 399.748169,366.709442 406.171692,361.174622 
	C408.984192,363.185852 412.762329,364.428650 413.848755,366.869537 
	C416.682587,373.236664 422.329193,377.701843 425.236084,383.276642 
	C429.630280,391.703796 436.747986,397.107361 442.247040,404.155365 
z"/>
<path fill="#644EC8" 
	d="
M467.197723,374.105560 
	C462.057068,381.103912 456.916412,388.102295 451.338318,394.955780 
	C450.225403,393.883362 449.743896,392.653198 448.843719,392.076294 
	C441.832947,387.583344 438.540771,380.930908 435.267059,373.369202 
	C431.305298,364.218109 428.597137,353.849487 419.964050,347.217468 
	C419.292236,346.701324 419.187561,345.446930 418.913147,344.235229 
	C422.931763,337.237946 426.856567,330.541168 431.168945,323.889862 
	C434.116974,325.588043 437.689148,326.660095 439.037048,329.008728 
	C442.314362,334.719177 444.519043,341.040466 447.250061,347.072998 
	C447.848297,348.394440 448.714172,349.647186 449.671143,350.744598 
	C453.745483,355.416992 457.921692,360.000580 461.999176,364.670288 
	C462.512390,365.258026 462.588318,366.205444 462.991699,366.915283 
	C464.363495,369.329193 465.791321,371.711304 467.197723,374.105560 
z"/>
<path fill="#2B7FEC" 
	d="
M279.011139,44.007793 
	C275.794464,48.384960 272.936249,53.090431 269.288666,57.072956 
	C260.944305,66.183548 252.056000,74.796608 243.733627,83.926247 
	C241.116394,86.797363 239.667099,90.713417 237.561829,94.075165 
	C233.462448,100.621124 229.277298,107.113365 224.790161,114.157692 
	C226.477737,114.358749 227.522064,114.483177 228.780487,114.796806 
	C218.869263,121.239120 208.743896,127.492218 198.073242,133.686340 
	C197.064468,134.226639 196.600983,134.825912 196.137497,135.425186 
	C195.636139,135.920853 195.134796,136.416534 194.372574,136.974792 
	C191.254776,133.628113 191.355362,129.270493 195.296371,126.449394 
	C199.507248,123.435143 200.593704,119.127953 202.340805,114.360031 
	C205.717667,110.784126 208.979309,107.808609 211.680405,104.390160 
	C219.660400,94.290749 227.328827,83.944901 235.324371,73.858147 
	C237.436966,71.193016 240.306564,69.132019 242.800705,66.764259 
	C246.236649,63.502434 249.614868,60.179268 253.076111,56.944763 
	C256.236267,53.991650 260.894135,51.910892 259.467468,46.158520 
	C265.265900,45.459023 270.634705,44.792973 276.375549,44.060406 
	C277.502136,43.998520 278.256622,44.003159 279.011139,44.007793 
z"/>
<path fill="#7657DB" 
	d="
M467.514893,373.977600 
	C465.791321,371.711304 464.363495,369.329193 462.991699,366.915283 
	C462.588318,366.205444 462.512390,365.258026 461.999176,364.670288 
	C457.921692,360.000580 453.745483,355.416992 449.671143,350.744598 
	C448.714172,349.647186 447.848297,348.394440 447.250061,347.072998 
	C444.519043,341.040466 442.314362,334.719177 439.037048,329.008728 
	C437.689148,326.660095 434.116974,325.588043 431.218689,323.548492 
	C430.962494,322.471863 431.044067,321.782043 431.274841,320.728851 
	C432.173157,318.358093 432.922302,316.350708 433.720337,314.430969 
	C433.769257,314.518555 433.482117,314.727509 433.716858,314.387268 
	C436.539215,306.333893 439.126801,298.620758 441.984955,291.135986 
	C443.700592,294.053467 445.288452,296.677948 446.545013,299.452454 
	C447.527863,301.622650 447.661377,304.267212 448.932800,306.200928 
	C453.633606,313.350403 458.695129,320.261749 463.503235,327.342621 
	C464.301971,328.518951 464.346741,330.182220 465.026489,331.469116 
	C467.135254,335.461517 469.101013,339.575134 471.655396,343.273468 
	C474.142059,346.873840 477.286194,350.020081 480.141632,353.365753 
	C476.038452,360.193726 471.935242,367.021698 467.514893,373.977600 
z"/>
<path fill="#356EDD" 
	d="
M263.536438,104.257309 
	C260.656067,103.911446 258.203796,103.599953 254.161682,103.086525 
	C259.216827,95.659729 263.184570,88.172226 268.715607,82.111336 
	C276.148804,73.966011 284.945892,67.082466 292.851379,59.344517 
	C297.502930,54.791534 301.561279,49.632568 306.359406,44.372971 
	C308.212128,44.017426 309.591827,44.035057 311.319214,44.244560 
	C316.112854,45.334549 320.558899,46.232670 324.935181,47.466110 
	C320.240570,56.660858 314.271515,64.458618 306.595184,70.903389 
	C302.720459,74.156448 298.706848,77.256866 294.984406,80.674980 
	C290.983795,84.348465 287.189667,88.254677 283.426361,92.175430 
	C281.482025,94.201096 279.799896,96.478409 277.999298,98.642021 
	C278.265411,99.097549 278.531494,99.553078 278.797607,100.008606 
	C286.861420,100.008606 294.925201,100.008606 302.986633,100.313553 
	C302.982971,101.025078 302.981689,101.431656 302.980408,101.838234 
	C289.975128,102.656052 276.969818,103.473862 263.536438,104.257309 
z"/>
<path fill="#1D74EA" 
	d="
M82.974716,301.007538 
	C81.623207,293.958099 80.271706,286.908630 79.197411,279.151123 
	C79.329010,276.640106 79.183388,274.837189 79.026924,272.633789 
	C79.009384,271.166901 79.002693,270.100555 79.363602,269.011749 
	C80.656013,268.653137 81.607254,268.375488 82.501572,267.971771 
	C92.831116,263.308685 97.178444,252.488754 105.441666,245.621567 
	C111.115440,240.906387 115.702530,234.904419 121.219032,229.974060 
	C128.454453,223.507416 136.126602,217.529465 143.874069,211.123764 
	C143.750916,211.030258 144.395645,211.519806 145.040375,212.009369 
	C143.140335,222.096085 141.240295,232.182800 138.966751,242.396881 
	C137.443680,237.705093 134.371933,239.094482 131.930740,240.874451 
	C127.589638,244.039658 123.542908,247.615189 119.449081,251.108200 
	C118.457794,251.953979 117.756088,253.141754 116.932846,254.181488 
	C110.121841,262.783569 103.331062,271.401825 96.481453,279.973053 
	C95.661911,280.998596 94.456429,281.706665 93.555634,282.678497 
	C92.338974,283.991058 90.979370,285.273956 90.146690,286.820282 
	C87.635178,291.484283 85.348846,296.269562 82.974716,301.007538 
z"/>
<path fill="#1B7CF0" 
	d="
M145.230164,211.695892 
	C144.395645,211.519806 143.750916,211.030258 143.874069,211.123764 
	C136.126602,217.529465 128.454453,223.507416 121.219032,229.974060 
	C115.702530,234.904419 111.115440,240.906387 105.441666,245.621567 
	C97.178444,252.488754 92.831116,263.308685 82.501572,267.971771 
	C81.607254,268.375488 80.656013,268.653137 79.355515,268.539520 
	C78.976128,261.754517 78.972443,255.419296 79.320763,249.002945 
	C81.625549,247.261734 83.768082,245.777023 85.495071,243.908279 
	C90.425972,238.572647 95.089050,232.988327 100.053223,227.685043 
	C103.063118,224.469528 106.416046,221.572235 109.652115,218.572144 
	C112.407715,216.017471 115.216553,213.520218 118.001839,210.997559 
	C123.524307,207.878265 129.040466,204.747726 134.571838,201.644302 
	C137.446945,200.031174 140.536118,198.723099 143.180222,196.798599 
	C145.340286,195.226410 147.219162,193.112625 148.783279,190.924789 
	C150.094437,189.090820 150.464294,186.328400 153.967651,188.091095 
	C154.199280,188.356842 154.216843,188.733200 153.764069,188.953094 
	C152.587402,191.133347 151.863495,193.093719 151.139587,195.054092 
	C149.233032,200.496857 147.326508,205.939636 145.230164,211.695892 
z"/>
<path fill="#4E65D8" 
	d="
M355.608643,105.274521 
	C353.616333,107.375198 351.783386,109.673424 349.549774,111.474869 
	C348.710236,112.151962 346.834808,112.028717 345.614838,111.661621 
	C341.535248,110.434067 337.538452,108.931274 333.425232,107.063828 
	C333.490173,105.461655 334.134491,104.079987 333.709564,103.237823 
	C330.876251,97.622437 331.106506,92.487701 335.227753,87.539032 
	C336.458160,86.061638 337.571136,84.250854 338.041382,82.414467 
	C340.979919,70.938339 348.036957,62.120155 356.409607,53.905350 
	C359.512238,54.981602 362.239075,56.019951 364.977142,57.450218 
	C364.691162,61.662380 366.544373,64.289780 370.016541,65.284676 
	C370.547058,65.436684 372.035248,62.246548 373.460022,60.642220 
	C375.889221,61.432842 377.938873,62.183437 379.933197,63.281883 
	C378.497894,64.964149 377.121033,66.301796 375.737000,67.632042 
	C374.448639,68.870285 372.908356,69.929588 371.903656,71.364952 
	C368.131317,76.754364 364.735260,82.416534 360.805206,87.683266 
	C357.625732,91.944191 354.261932,95.837067 359.047882,101.334534 
	C359.124115,101.861984 359.161896,102.071861 359.199707,102.281731 
	C359.199707,102.281731 359.038330,102.164261 358.883972,102.255402 
	C358.485626,102.620285 358.241608,102.894035 357.997559,103.167778 
	C357.997559,103.167770 357.981232,103.009262 357.851074,103.172508 
	C357.477600,103.603622 357.234253,103.871490 356.990906,104.139359 
	C356.990906,104.139351 357.020966,103.994484 356.817810,104.195389 
	C356.279327,104.689034 355.943970,104.981781 355.608643,105.274521 
z"/>
<path fill="#1E63D5" 
	d="
M139.738205,274.310333 
	C140.116028,276.075989 140.493851,277.841614 140.502838,279.773376 
	C136.844299,276.169922 130.017929,277.739624 127.923256,283.543030 
	C124.565689,292.845337 117.363007,299.213226 111.678833,306.727509 
	C108.532791,310.886444 108.531532,312.193787 113.259552,315.120056 
	C106.534767,320.694611 99.809982,326.269135 92.385696,332.423492 
	C90.691879,327.483856 89.229485,323.219086 87.993118,318.320160 
	C92.216690,310.342804 96.211105,302.997894 100.219666,295.660736 
	C100.455849,295.228455 100.813820,294.864014 101.102280,294.458862 
	C104.163788,290.159058 107.280281,285.897003 110.268280,281.546661 
	C114.364388,275.583008 118.041939,269.283539 124.939606,265.906006 
	C126.011932,265.380920 126.877579,264.100983 127.463722,262.974884 
	C129.701462,258.675720 133.092255,256.576263 137.967804,256.997437 
	C138.035858,258.679596 138.103897,260.361725 137.989990,262.645905 
	C138.195801,263.831085 138.583572,264.414276 138.971344,264.997437 
	C139.057388,265.430542 139.143433,265.863647 138.905304,266.921112 
	C138.966812,269.800415 139.352509,272.055389 139.738205,274.310333 
z"/>
<path fill="#956BF0" 
	d="
M498.805237,304.965790 
	C497.132751,310.839447 495.460236,316.713135 493.228577,322.719299 
	C489.129150,320.240784 484.728241,318.267212 482.225525,314.887848 
	C476.805878,307.569733 472.427032,299.487549 467.491211,291.802155 
	C463.413574,285.452972 459.134521,279.233398 454.970032,272.939636 
	C452.836395,269.715118 450.260315,267.354065 446.008698,267.580505 
	C445.690430,265.133881 445.373840,263.097748 445.001038,260.768921 
	C444.638458,259.985718 444.332153,259.495209 444.025848,259.004669 
	C443.655121,251.621979 443.284424,244.239288 443.199646,236.139404 
	C443.827515,233.838791 444.169403,232.255371 444.574890,230.377426 
	C445.579590,230.664917 446.689240,230.636444 447.041412,231.138885 
	C449.472473,234.607239 452.916840,237.900177 453.864655,241.779816 
	C457.763397,257.738464 465.803040,271.416351 475.570801,284.269623 
	C477.744232,287.129608 480.009796,290.033478 482.719238,292.347809 
	C487.896515,296.770081 493.423462,300.782959 498.805237,304.965790 
z"/>
<path fill="#9F73F3" 
	d="
M498.959625,304.606323 
	C493.423462,300.782959 487.896515,296.770081 482.719238,292.347809 
	C480.009796,290.033478 477.744232,287.129608 475.570801,284.269623 
	C465.803040,271.416351 457.763397,257.738464 453.864655,241.779816 
	C452.916840,237.900177 449.472473,234.607239 447.041412,231.138885 
	C446.689240,230.636444 445.579590,230.664917 444.574890,230.377426 
	C444.169403,232.255371 443.827515,233.838791 443.259583,235.705688 
	C442.613617,233.616425 442.193634,231.243683 441.816772,228.462646 
	C445.810944,224.637589 449.711792,221.159973 453.741028,217.838043 
	C455.098083,216.719177 456.781158,215.995789 458.719696,215.405304 
	C461.052124,222.178757 464.303253,228.592941 464.527893,235.111435 
	C464.743134,241.358047 465.806122,246.930771 468.812469,252.072754 
	C472.317261,258.067230 476.093658,263.976624 480.404877,269.404572 
	C484.505707,274.567657 485.650055,282.222260 493.041321,284.686127 
	C496.148193,285.721802 499.187012,286.961792 502.256775,288.108887 
	C501.209167,293.488190 500.161591,298.867523 498.959625,304.606323 
z"/>
<path fill="#433BA1" 
	d="
M385.339233,445.784668 
	C383.479126,443.669373 381.919434,441.477814 380.416534,439.247925 
	C378.914642,437.019531 377.376312,434.807556 376.017395,432.492432 
	C372.268616,426.105865 368.618835,419.661224 364.888794,413.263519 
	C364.482910,412.567322 363.709106,412.090576 363.275024,411.404999 
	C359.872101,406.030487 355.023193,403.960388 348.860596,405.291504 
	C346.179199,405.870636 345.137665,404.868683 345.247742,401.792206 
	C351.995300,398.422333 358.488281,395.637817 365.003632,393.226013 
	C368.649750,398.701508 374.247925,400.966003 379.854370,401.751984 
	C385.181549,402.498810 388.477631,403.595337 389.350739,409.556885 
	C389.692688,411.891541 392.026306,415.097931 394.141174,415.783356 
	C399.666534,417.574066 400.188202,421.863678 400.911407,426.261871 
	C401.473480,429.680054 401.737213,433.147308 402.133575,436.592773 
	C396.643921,439.625702 391.154236,442.658630 385.339233,445.784668 
z"/>
<path fill="#3793F7" 
	d="
M353.213684,230.467926 
	C333.372040,247.970383 313.529999,265.472351 293.689301,282.975861 
	C291.079407,285.278259 288.476379,287.588440 285.369476,289.799347 
	C283.237549,284.798737 281.606384,279.893799 280.146851,274.699066 
	C297.149139,261.312286 313.937683,248.160645 330.829498,235.143066 
	C338.431183,229.284897 346.239044,223.694336 354.269958,218.130692 
	C356.100952,220.604767 357.615326,222.930511 359.129700,225.256256 
	C359.097961,225.596970 358.927704,225.841095 358.075378,226.087067 
	C357.172028,226.656906 356.812286,227.128326 356.452545,227.599747 
	C356.452545,227.599747 356.397461,227.446243 356.187988,227.500046 
	C355.776154,227.872009 355.573792,228.190155 355.371429,228.508301 
	C355.371429,228.508301 355.357849,228.348282 355.152771,228.406921 
	C354.621063,228.900497 354.294373,229.335464 353.967712,229.770416 
	C353.967712,229.770416 353.932251,229.999969 353.739532,230.083221 
	C353.546814,230.166489 353.213684,230.467926 353.213684,230.467926 
z"/>
<path fill="#247EEB" 
	d="
M221.985764,345.438538 
	C207.613892,357.733398 193.242050,370.028259 178.496582,382.081482 
	C175.980011,377.569672 173.953918,373.234497 171.633774,369.062897 
	C170.764557,367.500061 169.211136,366.317780 168.138885,364.675781 
	C176.938858,357.220886 185.510925,349.979919 194.221664,342.909760 
	C199.701019,338.462433 205.388138,334.271057 211.043015,330.306091 
	C213.283005,333.024963 215.668182,335.249634 217.580185,337.825562 
	C219.316345,340.164551 220.537552,342.885803 221.985764,345.438538 
z"/>
<path fill="#B3BAED" 
	d="
M482.826447,79.523872 
	C480.289368,81.736450 477.752319,83.949028 475.056854,86.448196 
	C457.497833,101.800926 440.097168,116.867081 422.427307,131.692413 
	C426.166321,127.114998 424.582916,122.854889 421.793762,117.911316 
	C415.007202,122.908951 408.441620,127.794731 401.821960,132.606186 
	C392.877197,139.107651 383.890900,145.552002 374.563538,152.036270 
	C373.484131,152.048615 372.763611,152.045578 371.906525,151.888641 
	C371.769989,151.734756 371.496033,151.427811 371.496033,151.427811 
	C382.056213,143.572632 392.616425,135.717438 403.694580,127.472183 
	C406.701630,125.143463 409.190674,123.204803 411.679749,121.266144 
	C412.417511,120.831718 413.155273,120.397301 414.049438,119.755798 
	C415.414001,118.727005 416.622223,117.905304 418.315521,116.746284 
	C419.222626,115.998047 419.644623,115.587128 420.066620,115.176208 
	C435.005859,104.418564 449.944244,93.659729 464.884796,82.903946 
	C469.997437,79.223335 475.115479,75.550262 480.618469,71.860947 
	C481.005859,71.848160 481.152740,71.869255 481.152740,71.869255 
	C481.152740,71.869255 480.920380,71.617073 480.920380,71.617073 
	C480.920380,71.617073 481.136047,71.242676 481.758698,71.362900 
	C484.622223,72.020355 486.863129,72.557587 489.104004,73.094818 
	C487.402344,74.819824 485.700714,76.544830 483.639130,78.588806 
	C483.024445,79.036842 482.873535,79.242210 482.826447,79.523872 
z"/>
<path fill="#1D6BE1" 
	d="
M138.033020,256.547363 
	C133.092255,256.576263 129.701462,258.675720 127.463722,262.974884 
	C126.877579,264.100983 126.011932,265.380920 124.939606,265.906006 
	C118.041939,269.283539 114.364388,275.583008 110.268280,281.546661 
	C107.280281,285.897003 104.163788,290.159058 101.102280,294.458862 
	C100.813820,294.864014 100.455849,295.228455 100.219666,295.660736 
	C96.211105,302.997894 92.216690,310.342804 87.946648,317.937683 
	C86.092705,312.727417 84.511261,307.265503 82.952271,301.405548 
	C85.348846,296.269562 87.635178,291.484283 90.146690,286.820282 
	C90.979370,285.273956 92.338974,283.991058 93.555634,282.678497 
	C94.456429,281.706665 95.661911,280.998596 96.481453,279.973053 
	C103.331062,271.401825 110.121841,262.783569 116.932846,254.181488 
	C117.756088,253.141754 118.457794,251.953979 119.449081,251.108200 
	C123.542908,247.615189 127.589638,244.039658 131.930740,240.874451 
	C134.371933,239.094482 137.443680,237.705093 138.838852,242.778336 
	C138.755722,247.387390 138.426971,251.742355 138.033020,256.547363 
z"/>
<path fill="#4A40AA" 
	d="
M402.470581,436.451263 
	C401.737213,433.147308 401.473480,429.680054 400.911407,426.261871 
	C400.188202,421.863678 399.666534,417.574066 394.141174,415.783356 
	C392.026306,415.097931 389.692688,411.891541 389.350739,409.556885 
	C388.477631,403.595337 385.181549,402.498810 379.854370,401.751984 
	C374.247925,400.966003 368.649750,398.701508 365.212952,392.997803 
	C366.596436,391.574493 367.792999,390.752075 369.313782,389.816803 
	C374.416046,386.478668 379.194061,383.253387 384.271271,379.895020 
	C385.359772,379.379425 386.149109,378.996948 386.938446,378.614441 
	C388.842072,380.764435 390.868439,382.819733 392.618652,385.088074 
	C394.867035,388.001953 396.752197,391.200653 399.055969,394.065948 
	C401.310944,396.870575 404.026306,399.304230 406.292450,402.100983 
	C408.038879,404.256348 410.643982,406.696045 410.693024,409.054565 
	C410.817566,415.040100 411.094818,420.280365 418.016144,422.325653 
	C418.509338,422.471375 418.673859,423.729340 419.025085,424.849121 
	C413.641815,428.921997 408.224731,432.615875 402.470581,436.451263 
z"/>
<path fill="#8B64EA" 
	d="
M446.010376,267.990967 
	C450.260315,267.354065 452.836395,269.715118 454.970032,272.939636 
	C459.134521,279.233398 463.413574,285.452972 467.491211,291.802155 
	C472.427032,299.487549 476.805878,307.569733 482.225525,314.887848 
	C484.728241,318.267212 489.129150,320.240784 493.008179,323.005127 
	C491.169464,328.837372 488.991974,334.516235 486.492981,340.067810 
	C485.165131,338.500916 484.389618,336.801331 483.112030,335.667450 
	C477.965637,331.099854 472.100677,327.344727 469.303894,320.497101 
	C467.244019,315.453857 464.845703,310.436920 461.828217,305.923004 
	C457.322815,299.183319 455.734711,290.397980 447.742645,285.960022 
	C446.352997,285.188354 445.589722,282.310425 445.507935,280.364502 
	C445.335236,276.254303 445.804474,272.117096 446.010376,267.990967 
z"/>
<path fill="#2E8DF3" 
	d="
M279.975189,274.988892 
	C281.606384,279.893799 283.237549,284.798737 285.061859,289.917145 
	C271.751282,302.085480 258.247589,314.040344 244.274689,325.783264 
	C243.064819,322.679199 239.762619,319.988342 243.284607,316.712860 
	C243.706696,316.320312 243.239395,314.432190 242.658585,313.607605 
	C241.252914,311.611938 239.536667,309.834991 238.127945,307.687683 
	C243.207611,303.427643 248.028717,299.351257 253.018967,295.493683 
	C261.950653,288.589264 270.984222,281.816620 279.975189,274.988892 
z"/>
<path fill="#5C49C0" 
	d="
M418.819275,344.535706 
	C419.187561,345.446930 419.292236,346.701324 419.964050,347.217468 
	C428.597137,353.849487 431.305298,364.218109 435.267059,373.369202 
	C438.540771,380.930908 441.832947,387.583344 448.843719,392.076294 
	C449.743896,392.653198 450.225403,393.883362 451.052612,395.153076 
	C448.445374,398.362305 445.686371,401.229309 442.587219,404.125824 
	C436.747986,397.107361 429.630280,391.703796 425.236084,383.276642 
	C422.329193,377.701843 416.682587,373.236664 413.848755,366.869537 
	C412.762329,364.428650 408.984192,363.185852 406.339294,360.887451 
	C407.473053,358.580658 408.700104,356.783539 410.213013,354.799744 
	C413.272369,351.253967 416.045837,347.894836 418.819275,344.535706 
z"/>
<path fill="#3F60CE" 
	d="
M356.033752,53.867447 
	C348.036957,62.120155 340.979919,70.938339 338.041382,82.414467 
	C337.571136,84.250854 336.458160,86.061638 335.227753,87.539032 
	C331.106506,92.487701 330.876251,97.622437 333.709564,103.237823 
	C334.134491,104.079987 333.490173,105.461655 333.139404,106.848579 
	C323.221313,105.436539 313.504272,103.769669 303.383850,101.970512 
	C302.981689,101.431656 302.982971,101.025078 303.046143,99.961792 
	C306.068909,96.340927 309.070923,93.416565 311.982544,90.404808 
	C319.321075,82.813904 326.570587,75.136269 333.959839,67.595390 
	C336.466370,65.037430 339.066895,62.460793 342.018097,60.478737 
	C345.350311,58.240784 347.403564,55.666145 347.491699,51.565746 
	C350.611816,52.348812 353.322784,53.108128 356.033752,53.867447 
z"/>
<path fill="#6F79EC" 
	d="
M379.150543,167.085785 
	C368.845764,174.861023 358.510986,182.597031 348.251343,190.431366 
	C344.303009,193.446350 340.525513,196.685135 336.054016,199.755005 
	C332.629456,195.785736 329.821075,191.883392 327.222229,187.727890 
	C329.376404,185.925659 331.275208,184.314590 333.273102,182.837585 
	C346.193817,173.285645 359.136139,163.762939 372.111633,154.192230 
	C372.151886,154.153809 372.233582,154.078247 372.515808,154.013031 
	C373.504211,153.617035 374.210419,153.286240 375.001465,153.325989 
	C376.441071,158.159637 377.795807,162.622711 379.150543,167.085785 
z"/>
<path fill="#1D74EA" 
	d="
M167.969635,364.961975 
	C169.211136,366.317780 170.764557,367.500061 171.633774,369.062897 
	C173.953918,373.234497 175.980011,377.569672 178.184357,382.246704 
	C169.388168,390.030060 160.530594,397.406525 151.004517,404.842560 
	C148.364197,403.582184 146.183746,402.487885 144.462692,400.896729 
	C140.522568,397.253906 137.483582,392.104370 130.816864,393.659058 
	C130.878265,393.348602 131.053070,393.128021 131.793762,392.827209 
	C132.466202,392.379761 132.686172,392.102386 132.906158,391.825012 
	C133.399384,391.243530 133.892609,390.662018 134.812408,390.088104 
	C135.491180,389.736664 135.743408,389.377625 135.995636,389.018585 
	C135.995621,389.018585 136.186523,388.820282 136.593048,388.747253 
	C137.330963,388.381439 137.662384,388.088654 137.993790,387.795837 
	C137.993790,387.795837 137.984070,387.987335 138.114838,387.820190 
	C138.477692,387.368774 138.709808,387.084442 138.941925,386.800110 
	C139.454453,386.252533 139.966995,385.704926 141.080475,385.012115 
	C142.394348,384.111359 143.107300,383.355835 143.820267,382.600311 
	C143.820267,382.600311 143.788681,382.772461 144.058044,382.752869 
	C144.850494,382.087341 145.373566,381.441376 145.896637,380.795441 
	C145.896652,380.795441 145.904602,380.898315 146.180969,380.864471 
	C146.824402,380.360657 147.191467,379.890717 147.558533,379.420746 
	C147.558533,379.420746 147.507584,379.379425 147.869476,379.493347 
	C150.145844,377.708740 152.060318,375.810211 153.974823,373.911682 
	C153.974823,373.911713 153.978653,373.980713 154.316116,373.976959 
	C156.413315,372.265839 158.173065,370.558472 159.932800,368.851105 
	C159.932800,368.851105 159.943863,368.936249 160.226242,368.895203 
	C160.905182,368.387970 161.301758,367.921783 161.698334,367.455597 
	C161.698318,367.455597 161.614670,367.568756 161.935806,367.618958 
	C164.161179,366.766785 166.065414,365.864380 167.969635,364.961975 
z"/>
<path fill="#815EE3" 
	d="
M446.008728,267.580505 
	C445.804474,272.117096 445.335236,276.254303 445.507935,280.364502 
	C445.589722,282.310425 446.352997,285.188354 447.742645,285.960022 
	C455.734711,290.397980 457.322815,299.183319 461.828217,305.923004 
	C464.845703,310.436920 467.244019,315.453857 469.303894,320.497101 
	C472.100677,327.344727 477.965637,331.099854 483.112030,335.667450 
	C484.389618,336.801331 485.165131,338.500916 486.239319,340.344696 
	C484.432098,344.795166 482.556976,348.841461 480.411743,353.126770 
	C477.286194,350.020081 474.142059,346.873840 471.655396,343.273468 
	C469.101013,339.575134 467.135254,335.461517 465.026489,331.469116 
	C464.346741,330.182220 464.301971,328.518951 463.503235,327.342621 
	C458.695129,320.261749 453.633606,313.350403 448.932800,306.200928 
	C447.661377,304.267212 447.527863,301.622650 446.545013,299.452454 
	C445.288452,296.677948 443.700592,294.053467 442.056519,290.727966 
	C442.281281,286.732849 442.705048,283.374115 443.354492,279.694702 
	C444.072510,273.269867 444.564880,267.165741 445.057251,261.061584 
	C445.373840,263.097748 445.690430,265.133881 446.008728,267.580505 
z"/>
<path fill="#3A66D5" 
	d="
M266.747101,250.297089 
	C265.162842,249.042572 263.849182,247.714752 262.634338,246.301941 
	C260.716858,244.071976 258.865753,241.784927 257.154724,238.884399 
	C261.265167,235.212601 265.207458,232.178452 269.479675,229.052750 
	C279.239014,222.312027 288.668396,215.662857 298.330688,209.250031 
	C300.982758,213.848373 303.401978,218.210358 305.821167,222.572357 
	C305.821167,222.572357 305.704620,222.816422 305.464569,222.710266 
	C305.224518,222.604111 304.918091,222.645538 304.918091,222.645538 
	C304.918091,222.645538 305.075958,223.017532 305.075958,223.017548 
	C292.404663,232.073593 279.733337,241.129639 266.747101,250.297089 
z"/>
<path fill="#AA7BF6" 
	d="
M502.453308,287.789886 
	C499.187012,286.961792 496.148193,285.721802 493.041321,284.686127 
	C485.650055,282.222260 484.505707,274.567657 480.404877,269.404572 
	C476.093658,263.976624 472.317261,258.067230 468.812469,252.072754 
	C465.806122,246.930771 464.743134,241.358047 464.527893,235.111435 
	C464.303253,228.592941 461.052124,222.178757 459.070282,215.351135 
	C463.565186,215.952072 467.369995,217.587769 468.960999,222.690018 
	C470.587830,227.907150 472.269257,233.267044 474.981171,237.954437 
	C481.664948,249.506943 485.930054,262.499725 495.638611,272.306671 
	C498.478638,275.175507 500.244171,279.108002 502.755615,282.776367 
	C502.889343,284.490082 502.769592,285.980469 502.453308,287.789886 
z"/>
<path fill="#9C8DF6" 
	d="
M379.464355,166.967224 
	C377.795807,162.622711 376.441071,158.159637 375.007812,153.092484 
	C374.929321,152.488403 374.922424,152.020889 374.922424,152.020874 
	C383.890900,145.552002 392.877197,139.107651 401.821960,132.606186 
	C408.441620,127.794731 415.007202,122.908951 421.793762,117.911316 
	C424.582916,122.854889 426.166321,127.114998 422.107391,131.814880 
	C407.963867,143.735001 393.871002,155.291824 379.464355,166.967224 
z"/>
<path fill="#6F79EC" 
	d="
M368.989563,389.929688 
	C367.792999,390.752075 366.596436,391.574493 365.190552,392.625122 
	C358.488281,395.637817 351.995300,398.422333 345.225586,401.396545 
	C338.540222,403.476685 332.131592,405.367065 325.397675,407.363190 
	C316.336914,408.570496 307.601379,409.672089 298.436279,410.834320 
	C284.608765,409.594421 271.210815,408.293854 257.402649,406.983154 
	C248.834976,404.185150 240.726974,401.232239 232.475174,398.759003 
	C230.958649,398.304474 228.404861,399.293701 227.102539,400.471130 
	C219.099670,407.706451 211.318787,415.187317 202.747940,422.766479 
	C201.175903,422.906921 200.319962,422.867340 199.463989,422.827759 
	C208.977707,413.764801 218.439392,404.645538 228.086014,395.726257 
	C229.045685,394.838959 231.385300,394.527466 232.659088,395.029053 
	C279.134094,413.327057 324.323547,410.777679 368.630157,387.264954 
	C368.991180,388.360870 368.990387,389.145264 368.989563,389.929688 
z"/>
<path fill="#1D6BE1" 
	d="
M130.823761,393.689758 
	C137.483582,392.104370 140.522568,397.253906 144.462692,400.896729 
	C146.183746,402.487885 148.364197,403.582184 150.692963,404.965942 
	C142.705978,411.881897 134.362061,418.733978 125.477173,425.399170 
	C121.018929,423.832581 118.880219,421.245941 117.616646,417.100739 
	C116.790100,414.389191 113.914284,412.302307 111.956329,409.935638 
	C117.455765,405.112457 122.955208,400.289276 128.888031,395.393494 
	C129.658005,395.261963 129.794861,395.041962 129.731979,394.660889 
	C129.731979,394.660889 129.829315,394.789001 130.018356,394.703979 
	C130.436111,394.319550 130.664841,394.020142 130.893555,393.720764 
	C130.893555,393.720764 130.830643,393.720459 130.823761,393.689758 
z"/>
<path fill="#2A87F2" 
	d="
M237.945618,307.969910 
	C239.536667,309.834991 241.252914,311.611938 242.658585,313.607605 
	C243.239395,314.432190 243.706696,316.320312 243.284607,316.712860 
	C239.762619,319.988342 243.064819,322.679199 243.955124,325.904480 
	C236.947372,332.534760 229.790009,338.831848 222.309204,345.283752 
	C220.537552,342.885803 219.316345,340.164551 217.580185,337.825562 
	C215.668182,335.249634 213.283005,333.024963 211.213882,330.019043 
	C212.319199,328.528870 213.361389,327.714874 214.301758,326.796570 
	C217.927567,323.255768 221.520828,319.681641 225.392639,315.929993 
	C225.910431,314.970367 226.161819,314.200684 226.413177,313.431000 
	C226.413177,313.431000 226.470108,313.378754 226.888458,313.555664 
	C228.724213,313.214539 230.243225,312.874908 231.536453,312.138641 
	C233.747345,310.879974 235.816772,309.372772 237.945618,307.969910 
z"/>
<path fill="#1D6BE1" 
	d="
M152.953430,315.881256 
	C154.243149,318.573944 155.532867,321.266663 157.220200,324.035706 
	C146.187469,332.005310 134.826874,340.001984 123.308624,347.764771 
	C109.795860,356.871826 96.146034,365.775513 82.021988,374.614990 
	C82.006081,372.687256 82.523842,370.911926 83.275032,369.085205 
	C83.508461,369.033813 83.982147,368.969391 84.341743,368.966827 
	C85.789246,367.969299 86.877144,366.974304 88.163055,365.704773 
	C89.999359,364.335876 91.710373,363.335602 93.264946,362.133087 
	C113.174126,346.732635 133.060928,331.303284 152.953430,315.881256 
z"/>
<path fill="#0B2954" 
	d="
M71.185158,467.207397 
	C62.971436,473.673462 54.761211,480.144012 46.540092,486.600708 
	C45.362587,487.525513 44.212051,488.528809 42.909573,489.240601 
	C40.551804,490.529205 38.441948,494.021210 35.361942,490.050812 
	C32.365978,486.188782 31.632666,480.922272 34.335236,478.463989 
	C42.582310,470.962402 50.947536,463.590698 59.742886,456.325500 
	C63.874371,460.057495 67.529762,463.632446 71.185158,467.207397 
z"/>
<path fill="#42B7ED" 
	d="
M238.127960,307.687683 
	C235.816772,309.372772 233.747345,310.879974 231.536453,312.138641 
	C230.243225,312.874908 228.724213,313.214539 226.926666,313.550232 
	C245.637573,298.049164 264.526428,282.469788 283.867096,267.473022 
	C312.693298,245.121216 341.838226,223.180481 371.543976,200.956055 
	C374.156677,200.226410 376.072937,199.605560 377.808197,199.267151 
	C369.735931,205.693848 361.844635,211.838104 353.953369,217.982361 
	C346.239044,223.694336 338.431183,229.284897 330.829498,235.143066 
	C313.937683,248.160645 297.149139,261.312286 280.146851,274.699097 
	C270.984222,281.816620 261.950653,288.589264 253.018967,295.493683 
	C248.028717,299.351257 243.207611,303.427643 238.127960,307.687683 
z"/>
<path fill="#24A3E8" 
	d="
M153.141739,315.610474 
	C133.060928,331.303284 113.174126,346.732635 93.264946,362.133087 
	C91.710373,363.335602 89.999359,364.335876 87.839363,365.716187 
	C86.885185,366.011261 86.452698,366.020325 85.910934,365.915588 
	C85.801643,365.801788 85.580788,365.576416 85.580788,365.576416 
	C112.193947,344.527985 138.564117,323.162598 165.488937,302.520660 
	C192.158432,282.074463 219.387192,262.357697 246.832611,242.505280 
	C247.556808,243.253296 247.819061,243.817032 248.081314,244.380768 
	C237.158356,252.499573 226.245163,260.631531 215.310089,268.734009 
	C199.171463,280.692139 182.991165,292.594208 166.886215,304.597443 
	C162.265488,308.041321 157.843277,311.751556 153.141739,315.610474 
z"/>
<path fill="#0FD9ED" 
	d="
M82.749817,207.799347 
	C87.820747,183.230988 97.738022,160.662033 111.067863,139.530029 
	C131.804749,106.655487 159.624252,81.481819 194.539124,63.857704 
	C195.135223,64.480560 195.229889,64.766769 195.202896,65.347885 
	C194.997757,66.057419 194.914276,66.472061 194.472321,66.910683 
	C185.711136,72.235588 177.308411,77.536499 168.574036,82.928795 
	C151.064011,94.959488 136.061142,109.337624 124.069679,126.339630 
	C114.751785,139.550903 107.256035,154.047333 98.714561,168.213806 
	C97.974091,169.938766 97.469460,171.422485 96.778557,173.048401 
	C96.361366,173.409912 96.197899,173.671371 95.944023,174.279831 
	C95.219734,176.068192 94.653297,177.551697 93.864555,179.221481 
	C93.462990,179.946396 93.283737,180.485046 92.859238,181.283600 
	C91.109795,186.364899 89.605591,191.186279 87.922211,196.339676 
	C86.483559,201.128403 85.224075,205.585114 83.732651,209.812866 
	C83.250412,208.989029 83.000114,208.394196 82.749817,207.799347 
z"/>
<path fill="#2162CC" 
	d="
M113.573669,315.016541 
	C108.531532,312.193787 108.532791,310.886444 111.678833,306.727509 
	C117.363007,299.213226 124.565689,292.845337 127.923256,283.543030 
	C130.017929,277.739624 136.844299,276.169922 140.464874,280.173981 
	C144.128860,288.108978 142.631851,293.733002 135.046082,298.497467 
	C127.523911,303.221954 120.903625,309.382355 113.573669,315.016541 
z"/>
<path fill="#5D9AF2" 
	d="
M354.269958,218.130692 
	C361.844635,211.838104 369.735931,205.693848 378.099182,199.096069 
	C387.827057,191.458511 397.115601,184.315582 406.292114,177.031540 
	C407.293274,176.236832 407.649048,174.629089 408.304169,173.398453 
	C408.304169,173.398453 408.373566,173.269653 408.841156,173.470337 
	C410.805328,174.956985 412.301941,176.242950 413.798523,177.528931 
	C413.798523,177.528931 413.731110,177.626251 413.386963,177.636505 
	C412.883606,177.961761 412.724365,178.276749 412.565155,178.591751 
	C412.565155,178.591751 412.479614,178.510529 412.241180,178.542786 
	C411.799957,178.894272 411.597168,179.213486 411.394409,179.532715 
	C411.394409,179.532715 411.331665,179.351105 411.141724,179.435547 
	C410.731476,179.839951 410.511169,180.159897 410.290833,180.479843 
	C410.290833,180.479843 410.267395,180.276413 410.016052,180.348572 
	C408.527252,181.663300 407.289764,182.905899 406.052277,184.148499 
	C390.621674,197.766251 375.191040,211.384003 359.445068,225.128998 
	C357.615326,222.930511 356.100952,220.604767 354.269958,218.130692 
z"/>
<path fill="#1E63D5" 
	d="
M111.673309,410.111633 
	C113.914284,412.302307 116.790100,414.389191 117.616646,417.100739 
	C118.880219,421.245941 121.018929,423.832581 125.159714,425.565796 
	C118.903831,431.128265 112.424446,436.337219 105.557541,441.274048 
	C102.713120,434.824799 99.098610,429.666565 92.761795,426.904388 
	C98.971291,421.365479 105.180779,415.826569 111.673309,410.111633 
z"/>
<path fill="#5D9AF2" 
	d="
M418.031891,207.072281 
	C428.721313,197.751434 439.410736,188.430588 450.820984,179.026093 
	C455.935822,178.874802 457.178864,181.549438 457.122650,185.354828 
	C445.708801,195.749924 434.294952,206.145050 422.506958,216.260742 
	C420.765808,213.011642 419.398865,210.041962 418.031891,207.072281 
z"/>
<path fill="#1653AA" 
	d="
M96.055252,449.028839 
	C88.583145,454.627655 81.111046,460.226471 73.185020,465.619171 
	C72.401428,463.006775 72.240479,460.561951 71.702156,458.203308 
	C70.914917,454.753998 69.856987,451.366455 68.914429,447.952606 
	C73.984634,443.343048 79.054840,438.733490 84.762283,434.176788 
	C86.815758,436.596466 88.071587,439.080200 89.689400,441.300079 
	C91.651695,443.992676 93.919579,446.462585 96.055252,449.028839 
z"/>
<path fill="#77C3EE" 
	d="
M477.555115,156.551743 
	C493.717773,143.248703 509.880402,129.945648 526.043030,116.642593 
	C526.599670,116.936722 527.156311,117.230850 527.712952,117.524986 
	C527.163574,118.994087 527.024536,120.894272 526.002625,121.866814 
	C513.147705,134.100983 500.167572,146.203613 487.212799,158.332703 
	C485.514404,159.922821 483.778839,161.473190 481.810608,162.849976 
	C482.349701,161.189987 483.138672,159.721985 484.243256,157.666748 
	C481.553986,157.218399 479.554565,156.885071 477.555115,156.551743 
z"/>
<path fill="#9C8DF6" 
	d="
M410.883362,78.841614 
	C425.384796,65.983864 439.886230,53.126125 454.373779,40.280693 
	C455.531036,41.544285 456.129761,42.198013 456.728485,42.851738 
	C456.713898,42.791634 456.699310,42.731529 456.684723,42.671425 
	C456.302277,43.329117 455.991821,44.043877 455.524170,44.634071 
	C453.960876,46.607235 452.494781,48.690968 450.714142,50.451942 
	C445.668762,55.441616 440.609436,60.430176 435.325470,65.162186 
	C428.946869,70.874420 422.331879,76.322647 415.207886,81.865616 
	C413.358856,80.844604 412.121124,79.843109 410.883362,78.841614 
z"/>
<path fill="#0B2954" 
	d="
M306.165009,317.280029 
	C295.949402,326.058716 285.770782,334.880890 275.505737,343.601379 
	C268.157318,349.844055 260.701263,355.960205 253.267441,362.101654 
	C252.567581,362.679840 251.683014,363.034424 250.377426,362.944458 
	C257.071228,353.182556 266.523499,346.079559 274.717621,337.813263 
	C283.037537,329.420105 291.794128,321.459839 300.850525,313.387177 
	C302.949371,314.736267 304.557190,316.008148 306.165009,317.280029 
z"/>
<path fill="#5D66DD" 
	d="
M359.009460,101.016975 
	C354.261932,95.837067 357.625732,91.944191 360.805206,87.683266 
	C364.735260,82.416534 368.131317,76.754364 371.903656,71.364952 
	C372.908356,69.929588 374.448639,68.870285 375.737000,67.632042 
	C377.121033,66.301796 378.497894,64.964149 380.268127,63.344582 
	C382.064392,63.758556 383.470337,64.457672 384.952850,65.361618 
	C385.029388,65.566437 385.180450,65.977402 384.870789,66.136017 
	C378.876617,70.717644 377.322479,76.268288 380.006927,82.976105 
	C376.944580,85.929596 373.882263,88.883095 370.164276,91.808609 
	C363.548981,90.565872 361.695435,92.561951 362.397003,99.439110 
	C362.397003,99.439110 362.273468,99.287117 362.081085,99.339104 
	C361.573700,99.860146 361.258698,100.329201 360.943726,100.798264 
	C360.943726,100.798271 360.938446,100.951897 360.567444,100.983414 
	C359.800781,101.015617 359.405121,101.016296 359.009460,101.016975 
z"/>
<path fill="#7BB1EF" 
	d="
M477.547516,156.560059 
	C479.554565,156.885071 481.553986,157.218399 484.243256,157.666748 
	C483.138672,159.721985 482.349701,161.189987 481.523315,163.007935 
	C481.485962,163.357864 481.479858,163.328766 481.202911,163.421234 
	C480.715820,163.812561 480.505676,164.111404 480.295502,164.410248 
	C480.295502,164.410248 480.288696,164.283890 480.090576,164.354233 
	C479.589691,164.831863 479.286987,165.239151 478.984253,165.646454 
	C471.905151,172.119171 464.826019,178.591888 457.434753,185.209717 
	C457.178864,181.549438 455.935822,178.874802 451.131561,178.916702 
	C459.271179,171.662643 467.821106,164.434326 476.811096,157.189392 
	C477.251160,157.172775 477.557312,156.997162 477.557312,156.997162 
	C477.557312,156.997162 477.521423,156.578247 477.521423,156.578247 
	C477.521423,156.578247 477.539917,156.568390 477.547516,156.560059 
z"/>
<path fill="#3F60CE" 
	d="
M369.800262,249.834290 
	C377.342957,243.009537 384.885651,236.184784 392.882080,229.568069 
	C394.524109,233.029999 395.712463,236.283875 396.900818,239.537750 
	C391.155426,244.623764 385.410034,249.709793 378.980865,254.929871 
	C375.464813,253.320724 372.632538,251.577515 369.800262,249.834290 
z"/>
<path fill="#7BB1EF" 
	d="
M384.876312,65.156799 
	C383.470337,64.457672 382.064392,63.758556 380.323486,62.996735 
	C377.938873,62.183437 375.889221,61.432842 373.242676,60.405327 
	C370.085815,59.105042 367.525848,58.081669 364.965881,57.058296 
	C362.239075,56.019951 359.512238,54.981602 356.409607,53.905350 
	C353.322784,53.108128 350.611816,52.348812 347.208679,51.373959 
	C341.011597,49.803074 335.506653,48.447720 329.668610,47.042702 
	C328.889862,47.034092 328.444183,47.075150 327.624451,47.093948 
	C326.501892,47.091389 325.753387,47.111092 325.004913,47.130791 
	C320.558899,46.232670 316.112854,45.334549 311.399414,43.935890 
	C312.082611,42.646217 313.033203,41.857075 313.983795,41.067932 
	C335.714508,43.290478 356.697601,48.266296 376.382874,58.017872 
	C379.003754,59.316196 381.617096,60.629734 384.596619,62.403229 
	C384.931610,63.632423 384.903961,64.394608 384.876312,65.156799 
z"/>
<path fill="#5D66DD" 
	d="
M327.012695,187.981064 
	C329.821075,191.883392 332.629456,195.785736 335.728760,199.856659 
	C331.315796,203.660477 326.611908,207.295715 321.273621,210.859497 
	C319.449646,209.235779 318.226929,207.707565 317.078369,206.125549 
	C315.358887,203.757202 313.691528,201.351044 312.179138,198.681488 
	C317.241760,194.928375 322.127197,191.454712 327.012695,187.981064 
z"/>
<path fill="#4E65D8" 
	d="
M312.001984,198.960968 
	C313.691528,201.351044 315.358887,203.757202 317.078369,206.125549 
	C318.226929,207.707565 319.449646,209.235779 320.955505,210.960266 
	C316.306122,214.850479 311.340393,218.568497 306.097931,222.429428 
	C303.401978,218.210358 300.982758,213.848373 298.532532,208.994446 
	C302.031006,205.738525 305.560547,202.974533 309.389282,200.106873 
	C310.459656,199.655792 311.230835,199.308380 312.001984,198.960968 
z"/>
<path fill="#7BB1EF" 
	d="
M414.063751,177.359970 
	C412.301941,176.242950 410.805328,174.956985 408.913818,173.462128 
	C422.228912,163.095779 435.938904,152.938324 449.648926,142.780869 
	C450.175995,143.452591 450.703064,144.124313 451.230164,144.796051 
	C438.929749,155.594360 426.629364,166.392685 414.063751,177.359970 
z"/>
<path fill="#2162CC" 
	d="
M96.364616,448.898956 
	C93.919579,446.462585 91.651695,443.992676 89.689400,441.300079 
	C88.071587,439.080200 86.815758,436.596466 85.072937,434.068176 
	C87.215271,431.651886 89.684189,429.397064 92.457458,427.023315 
	C99.098610,429.666565 102.713120,434.824799 105.229187,441.425262 
	C102.416901,444.155396 99.545441,446.462250 96.364616,448.898956 
z"/>
<path fill="#B3BAED" 
	d="
M504.868896,240.537659 
	C503.203949,232.534622 501.843170,224.031906 499.933807,215.654221 
	C498.015320,207.236862 495.696259,198.901260 493.264313,190.614487 
	C492.027893,186.401489 490.082611,185.921432 486.811890,188.795410 
	C479.582947,195.147491 472.591705,201.774170 465.263885,208.007111 
	C463.132385,209.820160 460.189819,210.679718 457.221008,211.934784 
	C468.272461,201.499557 479.721924,191.105896 491.833435,180.111237 
	C499.182800,199.890991 503.380371,219.688522 504.868896,240.537659 
z"/>
<path fill="#815EE3" 
	d="
M410.582458,78.989563 
	C412.121124,79.843109 413.358856,80.844604 414.900482,82.010071 
	C413.507141,83.732445 411.809906,85.290833 409.930176,87.097885 
	C408.396667,88.361374 407.045715,89.376205 405.535767,90.654312 
	C393.717285,100.245590 382.057800,109.573601 370.398346,118.901611 
	C369.971313,118.387306 369.544312,117.873001 369.117279,117.358696 
	C382.838715,104.618301 396.560150,91.877907 410.582458,78.989563 
z"/>
<path fill="#7BB1EF" 
	d="
M312.179138,198.681503 
	C311.230835,199.308380 310.459656,199.655792 309.154785,199.842987 
	C307.982819,199.421631 307.344543,199.160477 306.706299,198.899323 
	C325.593842,184.999924 344.481384,171.100525 363.995300,157.026886 
	C365.065308,156.462875 365.508972,156.073105 365.952637,155.683350 
	C365.952637,155.683350 365.914490,155.888596 366.147339,155.842056 
	C366.733734,155.315109 367.087280,154.834702 367.440826,154.354279 
	C367.440826,154.354279 367.534546,154.434464 367.786285,154.433228 
	C368.282166,154.120651 368.526306,153.809311 368.770416,153.497955 
	C368.770416,153.497955 368.747040,153.672775 369.092529,153.762390 
	C370.315796,153.978226 371.193604,154.104446 372.071411,154.230652 
	C359.136139,163.762939 346.193817,173.285645 333.273102,182.837585 
	C331.275208,184.314590 329.376404,185.925659 327.222229,187.727890 
	C322.127197,191.454712 317.241760,194.928375 312.179138,198.681503 
z"/>
<path fill="#42B7ED" 
	d="
M547.229858,111.454826 
	C543.114380,113.884789 539.544006,113.557846 536.589600,110.280746 
	C534.155273,107.580559 533.247864,104.049728 535.637268,101.216614 
	C537.350525,99.185143 540.481262,97.112625 542.869324,97.233650 
	C545.267761,97.355202 548.266785,99.701485 549.676880,101.916702 
	C551.736694,105.152634 550.506470,108.624641 547.229858,111.454826 
z"/>
<path fill="#5D66DD" 
	d="
M417.719421,207.187485 
	C419.398865,210.041962 420.765808,213.011642 422.188477,216.435608 
	C417.030945,221.648361 411.817657,226.406830 406.343140,230.908829 
	C407.212158,226.546677 408.073456,222.504608 403.501678,219.748154 
	C408.136780,215.599670 412.771851,211.451172 417.719421,207.187485 
z"/>
<path fill="#1D74EA" 
	d="
M49.281960,390.279541 
	C54.997456,393.780090 56.392288,398.544312 53.274090,402.793610 
	C50.582409,406.461670 45.470989,407.090424 41.841290,404.122223 
	C38.950294,401.758087 38.055305,398.590088 39.359913,395.204468 
	C41.002766,390.941040 44.355728,389.242920 49.281960,390.279541 
z"/>
<path fill="#42B7ED" 
	d="
M276.003479,44.126923 
	C270.634705,44.792973 265.265900,45.459023 259.053711,46.126633 
	C249.123123,48.381527 240.035950,50.634861 230.553772,52.914558 
	C228.055695,53.304283 225.952591,53.667648 223.863342,53.648407 
	C223.897110,52.501011 223.917053,51.736214 223.936981,50.971416 
	C239.883087,45.262348 256.364990,42.080589 273.614868,40.908951 
	C274.692596,42.234577 275.348053,43.180748 276.003479,44.126923 
z"/>
<path fill="#433BA1" 
	d="
M355.868103,262.592133 
	C356.318512,262.075378 356.768921,261.558624 357.779236,261.119171 
	C360.504211,263.304108 362.669342,265.411743 364.834442,267.519379 
	C359.151001,272.420410 353.467560,277.321411 347.343933,282.050262 
	C345.019409,279.837433 343.135040,277.796814 341.250702,275.756165 
	C345.329987,271.981476 349.409271,268.206787 354.011292,264.436096 
	C354.978760,263.824127 355.423431,263.208130 355.868103,262.592133 
z"/>
<path fill="#24A3E8" 
	d="
M225.126221,316.119934 
	C221.520828,319.681641 217.927567,323.255768 214.301758,326.796570 
	C213.361389,327.714874 212.319199,328.528870 211.152924,329.677826 
	C205.388138,334.271057 199.701019,338.462433 194.221664,342.909760 
	C185.510925,349.979919 176.938858,357.220886 168.138885,364.675781 
	C166.065414,365.864380 164.161179,366.766785 161.893127,367.563019 
	C182.032227,350.308624 202.535126,333.160400 223.719147,315.979553 
	C224.642258,316.004578 224.884232,316.062256 225.126221,316.119934 
z"/>
<path fill="#2A3382" 
	d="
M306.462891,317.114197 
	C304.557190,316.008148 302.949371,314.736267 301.127472,313.207336 
	C306.605652,307.668945 312.297913,302.387634 318.704346,297.032532 
	C321.016022,298.523254 322.613495,300.087738 324.210999,301.652222 
	C318.394257,306.750916 312.577515,311.849640 306.462891,317.114197 
z"/>
<path fill="#263D91" 
	d="
M340.982666,275.896118 
	C343.135040,277.796814 345.019409,279.837433 347.052155,282.256256 
	C342.011749,287.124664 336.822937,291.614899 331.310974,295.835999 
	C329.985809,293.033173 328.983795,290.499573 327.981750,287.965942 
	C332.226044,283.989319 336.470337,280.012726 340.982666,275.896118 
z"/>
<path fill="#4A40AA" 
	d="
M365.111694,267.380920 
	C362.669342,265.411743 360.504211,263.304108 358.021118,261.022156 
	C361.539154,257.274414 365.375122,253.700958 369.505676,249.980911 
	C372.632538,251.577515 375.464813,253.320724 378.681030,255.080444 
	C374.506287,259.145477 369.947601,263.193970 365.111694,267.380920 
z"/>
<path fill="#4E65D8" 
	d="
M403.207489,219.879944 
	C408.073456,222.504608 407.212158,226.546677 406.030243,231.080963 
	C403.133057,234.083145 400.287537,236.656738 397.171417,239.384048 
	C395.712463,236.283875 394.524109,233.029999 393.181305,229.424683 
	C396.322327,226.052750 399.617798,223.032242 403.207489,219.879944 
z"/>
<path fill="#5D9AF2" 
	d="
M306.378540,198.969666 
	C307.344543,199.160477 307.982819,199.421631 308.855560,199.946671 
	C305.560547,202.974533 302.031006,205.738525 298.299622,208.758087 
	C288.668396,215.662857 279.239014,222.312027 269.226624,228.794449 
	C267.990601,228.354446 267.337585,228.081207 266.684601,227.807968 
	C279.806671,218.218658 292.928741,208.629349 306.378540,198.969666 
z"/>
<path fill="#77C3EE" 
	d="
M276.375549,44.060402 
	C275.348053,43.180748 274.692596,42.234577 274.021790,40.993866 
	C287.074799,40.735237 300.143219,40.771141 313.597717,40.937492 
	C313.033203,41.857075 312.082611,42.646217 311.051788,43.744026 
	C309.591827,44.035057 308.212128,44.017426 306.418915,44.026642 
	C297.288300,44.006439 288.571167,43.959393 279.432587,43.960072 
	C278.256622,44.003159 277.502136,43.998520 276.375549,44.060402 
z"/>
<path fill="#6F79EC" 
	d="
M380.312744,82.845306 
	C377.322479,76.268288 378.876617,70.717644 385.213409,66.195526 
	C388.244690,67.664330 390.623657,69.232224 393.002655,70.800117 
	C388.874603,74.771576 384.746552,78.743034 380.312744,82.845306 
z"/>
<path fill="#263D91" 
	d="
M68.608429,448.078705 
	C69.856987,451.366455 70.914917,454.753998 71.702156,458.203308 
	C72.240479,460.561951 72.401428,463.006775 72.868706,465.762421 
	C72.584023,466.435730 72.161728,466.759674 71.462296,467.145508 
	C67.529762,463.632446 63.874371,460.057495 60.044411,456.181091 
	C62.680698,453.321350 65.491562,450.763062 68.608429,448.078705 
z"/>
<path fill="#6F79EC" 
	d="
M409.927155,354.986389 
	C408.700104,356.783539 407.473053,358.580658 406.078430,360.664917 
	C399.748169,366.709442 393.585510,372.466797 387.180664,378.419312 
	C386.149109,378.996948 385.359772,379.379425 384.023987,379.747498 
	C382.968140,379.169830 382.458801,378.606537 381.949463,378.043274 
	C390.175659,370.376160 398.401855,362.709015 407.364929,354.966370 
	C408.710297,354.922668 409.318726,354.954529 409.927155,354.986389 
z"/>
<path fill="#9C8DF6" 
	d="
M410.213013,354.799744 
	C409.318726,354.954529 408.710297,354.922668 407.644714,354.842224 
	C414.351624,343.703552 421.515747,332.613434 429.239380,321.269531 
	C430.241150,321.041260 430.683411,321.066772 431.125641,321.092285 
	C431.044067,321.782043 430.962494,322.471863 430.831116,323.503021 
	C426.856567,330.541168 422.931763,337.237946 418.913147,344.235229 
	C416.045837,347.894836 413.272369,351.253967 410.213013,354.799744 
z"/>
<path fill="#9C8DF6" 
	d="
M471.002625,35.030403 
	C468.961884,33.787868 466.921143,32.545341 464.646240,31.074726 
	C463.319458,26.403337 463.874786,22.554598 468.936157,20.310629 
	C475.473145,21.899910 476.480530,24.244682 473.582245,29.653969 
	C472.644379,31.404314 471.858185,33.235943 471.002625,35.030403 
z"/>
<path fill="#7BB1EF" 
	d="
M408.014648,173.557220 
	C407.649048,174.629089 407.293274,176.236832 406.292114,177.031540 
	C397.115601,184.315582 387.827057,191.458511 378.280182,198.813644 
	C376.072937,199.605560 374.156677,200.226410 371.851379,200.859131 
	C383.549927,191.819336 395.637543,182.767654 408.014648,173.557220 
z"/>
<path fill="#1D74EA" 
	d="
M83.041603,369.136627 
	C82.523842,370.911926 82.006081,372.687256 81.686325,374.705475 
	C75.958458,379.081940 70.032585,383.215485 64.106720,387.349030 
	C63.589977,387.022400 63.073242,386.695770 62.556503,386.369141 
	C63.077400,385.206665 63.293465,383.687073 64.168831,382.939819 
	C69.699913,378.218231 75.377136,373.667786 81.674255,369.026428 
	C82.575478,369.040222 82.808540,369.088440 83.041603,369.136627 
z"/>
<path fill="#24A3E8" 
	d="
M223.593597,50.973763 
	C223.917053,51.736214 223.897110,52.501011 223.529053,53.719643 
	C213.895462,57.799980 204.610016,61.426479 195.324554,65.052979 
	C195.229889,64.766769 195.135223,64.480560 194.900253,63.764481 
	C202.977890,59.847805 211.200119,56.371017 219.409393,52.863945 
	C220.719406,52.304295 221.971390,51.608799 223.593597,50.973763 
z"/>
<path fill="#B3BAED" 
	d="
M431.274841,320.728882 
	C430.683411,321.066772 430.241150,321.041260 429.467651,321.011627 
	C433.422638,307.252075 437.708923,293.496643 442.263855,279.539001 
	C442.729767,279.564301 442.928528,279.790497 443.128784,280.015381 
	C442.705048,283.374115 442.281281,286.732849 441.785950,290.499603 
	C439.126801,298.620758 436.539215,306.333893 433.658447,314.296448 
	C433.365295,314.545868 433.671448,314.343353 433.671448,314.343353 
	C432.922302,316.350708 432.173157,318.358093 431.274841,320.728882 
z"/>
<path fill="#283788" 
	d="
M327.684418,288.117432 
	C328.983795,290.499573 329.985809,293.033173 330.990540,295.985901 
	C328.957001,298.081696 326.920746,299.758392 324.547729,301.543640 
	C322.613495,300.087738 321.016022,298.523254 319.005249,296.918762 
	C321.523682,294.008820 324.455383,291.138855 327.684418,288.117432 
z"/>
<path fill="#B3BAED" 
	d="
M471.391693,35.125389 
	C471.858185,33.235943 472.644379,31.404314 473.582245,29.653969 
	C476.480530,24.244682 475.473145,21.899910 469.291016,20.293943 
	C471.100250,20.043055 473.200928,20.021049 475.640564,20.027966 
	C478.899567,22.574663 480.968170,25.536213 479.609100,29.558054 
	C478.390289,33.164970 475.804382,35.288811 471.391693,35.125389 
z"/>
<path fill="#42B7ED" 
	d="
M266.359619,227.903198 
	C267.337585,228.081207 267.990601,228.354446 268.896667,228.885986 
	C265.207458,232.178452 261.265167,235.212601 257.132935,238.505325 
	C254.201965,240.528946 251.460953,242.294006 248.400620,244.219910 
	C247.819061,243.817032 247.556808,243.253296 247.156616,242.414520 
	C253.357346,237.425797 259.695984,232.712112 266.359619,227.903198 
z"/>
<path fill="#4E65D8" 
	d="
M199.174103,422.952393 
	C200.319962,422.867340 201.175903,422.906921 202.459503,422.933105 
	C197.397141,428.192902 191.907135,433.466095 186.133469,438.937805 
	C182.600876,438.668915 183.937469,437.355347 185.290375,436.061035 
	C189.818192,431.729401 194.352432,427.404510 199.174103,422.952393 
z"/>
<path fill="#24A3E8" 
	d="
M82.528168,208.097153 
	C83.000114,208.394196 83.250412,208.989029 83.676460,210.188782 
	C83.258652,213.878845 82.665092,216.964005 82.033112,220.454575 
	C80.960716,228.977722 79.926735,237.095444 78.554749,245.152588 
	C77.991272,245.052429 77.765793,245.012817 77.540321,244.973221 
	C79.129044,232.780472 80.717773,220.587708 82.528168,208.097153 
z"/>
<path fill="#5D66DD" 
	d="
M381.625153,378.133118 
	C382.458801,378.606537 382.968140,379.169830 383.724792,379.880615 
	C379.194061,383.253387 374.416046,386.478668 369.313782,389.816833 
	C368.990387,389.145264 368.991180,388.360870 368.984131,387.182953 
	C373.084442,383.933929 377.192627,381.078430 381.625153,378.133118 
z"/>
<path fill="#1D6BE1" 
	d="
M77.403137,245.356644 
	C77.765793,245.012817 77.991272,245.052429 78.561966,245.531982 
	C78.927719,247.009323 78.948235,248.046692 78.968750,249.084076 
	C78.972443,255.419296 78.976128,261.754517 78.987900,268.561951 
	C79.002693,270.100555 79.009384,271.166901 78.977837,273.090576 
	C78.804077,274.547546 78.668564,275.147217 78.533051,275.746857 
	C78.110680,265.744598 77.688316,255.742325 77.403137,245.356644 
z"/>
<path fill="#3A66D5" 
	d="
M256.816193,257.381165 
	C256.355743,256.695312 255.919281,255.822784 256.103607,255.111053 
	C256.765106,252.556946 257.636505,250.057205 258.428528,247.536896 
	C260.143127,248.931259 261.857727,250.325607 263.878845,251.896454 
	C261.831879,253.804733 259.478424,255.536530 256.816193,257.381165 
z"/>
<path fill="#9C8DF6" 
	d="
M393.311096,70.678696 
	C390.623657,69.232224 388.244690,67.664330 385.523071,66.036919 
	C385.180450,65.977402 385.029388,65.566437 384.952850,65.361618 
	C384.903961,64.394608 384.931610,63.632423 384.951416,62.489872 
	C388.657166,63.803280 392.370789,65.497047 396.084381,67.190819 
	C396.449188,67.755844 396.814026,68.320869 397.178833,68.885902 
	C395.992401,69.443024 394.805969,70.000153 393.311096,70.678696 
z"/>
<path fill="#9F73F3" 
	d="
M443.354462,279.694702 
	C442.928528,279.790497 442.729767,279.564301 442.381958,279.168091 
	C442.765747,272.596313 443.300110,266.193207 443.930176,259.397400 
	C444.332153,259.495209 444.638458,259.985718 445.001038,260.768921 
	C444.564880,267.165741 444.072510,273.269867 443.354462,279.694702 
z"/>
<path fill="#6F79EC" 
	d="
M362.687622,99.282639 
	C361.695435,92.561951 363.548981,90.565872 369.859924,91.932816 
	C367.800262,94.432053 365.389252,96.779106 362.687622,99.282639 
z"/>
<path fill="#24A3E8" 
	d="
M153.665176,374.039978 
	C152.060318,375.810211 150.145844,377.708740 147.878632,379.461853 
	C149.469116,377.600372 151.412323,375.884338 153.665176,374.039978 
z"/>
<path fill="#24A3E8" 
	d="
M159.619217,368.966461 
	C158.173065,370.558472 156.413315,372.265839 154.282196,373.970428 
	C155.709076,372.339050 157.507355,370.710419 159.619217,368.966461 
z"/>
<path fill="#2185F3" 
	d="
M151.368530,194.812805 
	C151.863495,193.093719 152.587402,191.133347 153.632904,189.088287 
	C153.168808,190.859573 152.383133,192.715546 151.368530,194.812805 
z"/>
<path fill="#7BB1EF" 
	d="
M406.353699,184.027435 
	C407.289764,182.905899 408.527252,181.663300 410.118286,180.354401 
	C409.199615,181.494171 407.927368,182.700272 406.353699,184.027435 
z"/>
<path fill="#1D6BE1" 
	d="
M139.844269,273.847717 
	C139.352509,272.055389 138.966812,269.800415 138.844910,267.249176 
	C139.389267,269.096954 139.669815,271.241028 139.844269,273.847717 
z"/>
<path fill="#1B7CF0" 
	d="
M78.484795,276.073456 
	C78.668564,275.147217 78.804077,274.547546 78.988686,273.491089 
	C79.183388,274.837189 79.329010,276.640106 79.245682,278.721222 
	C78.823341,278.132965 78.629936,277.266510 78.484795,276.073456 
z"/>
<path fill="#B3BAED" 
	d="
M372.111633,154.192230 
	C371.193604,154.104446 370.315796,153.978226 369.009552,153.732452 
	C369.366699,152.969925 370.152283,152.326950 371.216949,151.555908 
	C371.496033,151.427811 371.769989,151.734756 371.930176,152.227600 
	C372.138092,153.173035 372.185822,153.625641 372.233582,154.078247 
	C372.233582,154.078247 372.151886,154.153809 372.111633,154.192230 
z"/>
<path fill="#42B7ED" 
	d="
M225.392639,315.929993 
	C224.884232,316.062256 224.642258,316.004578 224.035797,315.872131 
	C224.402100,315.099731 225.132874,314.402130 226.138428,313.567749 
	C226.161819,314.200684 225.910431,314.970367 225.392639,315.929993 
z"/>
<path fill="#24A3E8" 
	d="
M83.275032,369.085205 
	C82.808540,369.088440 82.575478,369.040222 81.990204,368.934387 
	C82.407677,368.130524 83.177368,367.384338 84.344879,366.652588 
	C84.742706,366.667053 85.019104,367.018829 84.904053,367.270386 
	C84.520042,368.004425 84.251091,368.486908 83.982147,368.969391 
	C83.982147,368.969391 83.508461,369.033813 83.275032,369.085205 
z"/>
<path fill="#1D6BE1" 
	d="
M139.027557,264.688141 
	C138.583572,264.414276 138.195801,263.831085 138.010864,263.066498 
	C138.503738,263.382996 138.793762,263.880920 139.027557,264.688141 
z"/>
<path fill="#4A40AA" 
	d="
M355.600891,262.730591 
	C355.423431,263.208130 354.978760,263.824127 354.308716,264.293945 
	C354.500122,263.721558 354.916901,263.295319 355.600891,262.730591 
z"/>
<path fill="#24A3E8" 
	d="
M145.609100,380.899017 
	C145.373566,381.441376 144.850494,382.087341 143.975555,382.723694 
	C144.189651,382.143585 144.755600,381.573090 145.609100,380.899017 
z"/>
<path fill="#24A3E8" 
	d="
M143.525360,382.711914 
	C143.107300,383.355835 142.394348,384.111359 141.356995,384.935272 
	C141.765198,384.276917 142.497818,383.550232 143.525360,382.711914 
z"/>
<path fill="#2185F3" 
	d="
M196.415680,135.308502 
	C196.600983,134.825912 197.064468,134.226639 197.751175,133.787674 
	C197.547546,134.362595 197.120712,134.777206 196.415680,135.308502 
z"/>
<path fill="#24A3E8" 
	d="
M135.744705,389.044067 
	C135.743408,389.377625 135.491180,389.736664 135.083054,389.982849 
	C135.116013,389.603210 135.304901,389.336395 135.744705,389.044067 
z"/>
<path fill="#6F79EC" 
	d="
M361.204712,100.679901 
	C361.258698,100.329201 361.573700,99.860146 362.165405,99.289314 
	C362.116669,99.645531 361.791199,100.103531 361.204712,100.679901 
z"/>
<path fill="#24A3E8" 
	d="
M147.278198,379.521301 
	C147.191467,379.890717 146.824402,380.360657 146.129456,380.862061 
	C146.200317,380.469635 146.599091,380.045746 147.278198,379.521301 
z"/>
<path fill="#5D9AF2" 
	d="
M354.215881,229.671631 
	C354.294373,229.335464 354.621063,228.900497 355.231506,228.422821 
	C355.164856,228.777695 354.814453,229.175278 354.215881,229.671631 
z"/>
<path fill="#6F79EC" 
	d="
M359.047882,101.334534 
	C359.405121,101.016296 359.800781,101.015617 360.490845,100.977280 
	C360.427582,101.332733 360.069946,101.725838 359.455994,102.200333 
	C359.161896,102.071861 359.124115,101.861984 359.047882,101.334534 
z"/>
<path fill="#24A3E8" 
	d="
M161.401215,367.544006 
	C161.301758,367.921783 160.905182,368.387970 160.183350,368.896912 
	C160.273407,368.503967 160.688736,368.068207 161.401215,367.544006 
z"/>
<path fill="#5D9AF2" 
	d="
M356.717346,227.468475 
	C356.812286,227.128326 357.172028,226.656906 357.846741,226.126465 
	C357.768524,226.490707 357.375336,226.913940 356.717346,227.468475 
z"/>
<path fill="#77C3EE" 
	d="
M479.219086,165.552948 
	C479.286987,165.239151 479.589691,164.831863 480.152039,164.369171 
	C480.092407,164.695648 479.773163,165.077545 479.219086,165.552948 
z"/>
<path fill="#B3BAED" 
	d="
M367.180237,154.489899 
	C367.087280,154.834702 366.733734,155.315109 366.046082,155.816742 
	C366.114532,155.433823 366.517120,155.029678 367.180237,154.489899 
z"/>
<path fill="#B3BAED" 
	d="
M365.657227,155.758209 
	C365.508972,156.073105 365.065308,156.462875 364.327881,156.940033 
	C364.476685,156.629303 364.919281,156.231201 365.657227,155.758209 
z"/>
<path fill="#7BB1EF" 
	d="
M410.555481,180.359207 
	C410.511169,180.159897 410.731476,179.839951 411.237213,179.425049 
	C411.288483,179.632919 411.054321,179.935745 410.555481,180.359207 
z"/>
<path fill="#1D74EA" 
	d="
M129.521866,394.742493 
	C129.794861,395.041962 129.658005,395.261963 129.184418,395.255066 
	C129.047394,395.189209 129.311752,394.824097 129.521866,394.742493 
z"/>
<path fill="#6F79EC" 
	d="
M358.301880,103.102898 
	C358.241608,102.894035 358.485626,102.620285 358.943176,102.175041 
	C358.973206,102.348366 358.789734,102.693184 358.301880,103.102898 
z"/>
<path fill="#5D9AF2" 
	d="
M355.622986,228.397278 
	C355.573792,228.190155 355.776154,227.872009 356.269531,227.498611 
	C356.331879,227.724335 356.103210,228.005295 355.622986,228.397278 
z"/>
<path fill="#3A66D5" 
	d="
M255.388977,258.366241 
	C255.299728,258.162506 255.512711,257.811401 255.973526,257.275726 
	C256.044647,257.467072 255.867920,257.842957 255.388977,258.366241 
z"/>
<path fill="#5D66DD" 
	d="
M355.968262,105.208717 
	C355.943970,104.981781 356.279327,104.689034 356.890198,104.210716 
	C356.886444,104.397736 356.607178,104.770325 355.968262,105.208717 
z"/>
<path fill="#4E65D8" 
	d="
M305.189697,223.020813 
	C305.075958,223.017532 304.918091,222.645538 304.918091,222.645538 
	C304.918091,222.645538 305.224518,222.604111 305.329773,222.721252 
	C305.435059,222.838379 305.303467,223.024094 305.189697,223.020813 
z"/>
<path fill="#B3BAED" 
	d="
M455.657227,212.849701 
	C455.671265,213.058975 455.359711,213.364670 454.749451,213.814484 
	C454.744324,213.621109 455.037964,213.283600 455.657227,212.849701 
z"/>
<path fill="#B3BAED" 
	d="
M456.682556,211.889053 
	C456.725189,212.087540 456.483490,212.377411 455.988586,212.802399 
	C455.956329,212.618500 456.177277,212.299454 456.682556,211.889053 
z"/>
<path fill="#7BB1EF" 
	d="
M412.777161,178.478226 
	C412.724365,178.276749 412.883606,177.961761 413.328186,177.643295 
	C413.468536,177.935806 413.260406,178.177429 412.777161,178.478226 
z"/>
<path fill="#7BB1EF" 
	d="
M411.640839,179.414459 
	C411.597168,179.213486 411.799957,178.894272 412.296265,178.521683 
	C412.355591,178.744293 412.121429,179.020264 411.640839,179.414459 
z"/>
<path fill="#1D74EA" 
	d="
M130.607910,393.809875 
	C130.664841,394.020142 130.436111,394.319550 129.949005,394.744720 
	C129.901154,394.546692 130.111710,394.222839 130.607910,393.809875 
z"/>
<path fill="#24A3E8" 
	d="
M84.619797,366.480164 
	C84.666161,366.041412 84.886024,365.846710 85.368637,365.642761 
	C85.580788,365.576416 85.801643,365.801788 85.789230,366.122253 
	C85.574303,366.700592 85.321732,366.892639 85.019104,367.018829 
	C85.019104,367.018829 84.742706,366.667053 84.619797,366.480164 
z"/>
<path fill="#1D6BE1" 
	d="
M132.661926,391.940918 
	C132.686172,392.102386 132.466202,392.379761 132.005402,392.775208 
	C131.982269,392.614471 132.199982,392.335663 132.661926,391.940918 
z"/>
<path fill="#6F79EC" 
	d="
M357.282990,104.065582 
	C357.234253,103.871490 357.477600,103.603622 357.930298,103.163940 
	C357.951477,103.325356 357.763275,103.658585 357.282990,104.065582 
z"/>
<path fill="#77C3EE" 
	d="
M480.550507,164.308044 
	C480.505676,164.111404 480.715820,163.812561 481.195770,163.430893 
	C481.245544,163.633972 481.025513,163.919891 480.550507,164.308044 
z"/>
<path fill="#24A3E8" 
	d="
M137.658707,387.885315 
	C137.662384,388.088654 137.330963,388.381439 136.703583,388.829285 
	C136.712936,388.647797 137.018280,388.311279 137.658707,387.885315 
z"/>
<path fill="#B3BAED" 
	d="
M368.494873,153.585175 
	C368.526306,153.809311 368.282166,154.120651 367.731262,154.461090 
	C367.689423,154.217575 367.954346,153.944977 368.494873,153.585175 
z"/>
<path fill="#24A3E8" 
	d="
M138.673859,386.912323 
	C138.709808,387.084442 138.477692,387.368774 138.019135,387.814392 
	C137.997055,387.658661 138.201416,387.341583 138.673859,386.912323 
z"/>
<path fill="#77C3EE" 
	d="
M477.349091,156.631317 
	C477.521423,156.578247 477.557312,156.997162 477.557312,156.997162 
	C477.557312,156.997162 477.251160,157.172775 477.134949,157.090668 
	C477.018738,157.008545 477.176758,156.684372 477.349091,156.631317 
z"/>
<path fill="#3A66D5" 
	d="
M265.376953,251.294037 
	C265.298248,251.094467 265.511902,250.758041 265.971283,250.248474 
	C266.034454,250.435959 265.851929,250.796570 265.376953,251.294037 
z"/>
<path fill="#5D9AF2" 
	d="
M353.338867,230.447495 
	C353.213684,230.467926 353.546814,230.166489 353.623413,230.081512 
	C353.712219,230.190186 353.633575,230.333694 353.338867,230.447495 
z"/>
<path fill="#77C3EE" 
	d="
M489.346191,73.016884 
	C486.863129,72.557587 484.622223,72.020355 481.967865,71.308792 
	C492.907074,62.923229 504.259766,54.712013 516.126465,46.170319 
	C517.435120,45.542179 518.229675,45.244518 519.024292,44.946854 
	C513.276428,50.675339 507.528534,56.403831 501.306122,62.564438 
	C498.786621,64.959129 496.741638,66.921700 494.696655,68.884277 
	C493.672455,69.588303 492.648285,70.292336 491.175659,70.978607 
	C490.520813,71.339661 490.314423,71.718475 490.108063,72.097305 
	C489.934845,72.377861 489.761627,72.658401 489.346191,73.016884 
z"/>
<path fill="#B3BAED" 
	d="
M490.325287,72.020050 
	C490.314423,71.718475 490.520813,71.339661 490.877167,71.076691 
	C490.993134,71.525032 490.831604,71.775124 490.325287,72.020050 
z"/>
<path fill="#77C3EE" 
	d="
M519.005371,44.851795 
	C518.947754,45.044033 519.398926,45.017059 519.398926,45.017059 
	C519.398926,45.017059 519.568909,44.599316 519.635986,44.388245 
	C519.471985,44.314449 519.258667,44.475243 519.005371,44.851795 
z"/>
<path fill="#77C3EE" 
	d="
M480.922058,71.635551 
	C480.920380,71.617073 481.152740,71.869255 481.152740,71.869255 
	C481.152740,71.869255 481.005859,71.848160 480.949188,71.738770 
	C480.892517,71.629379 480.923737,71.654030 480.922058,71.635551 
z"/>
<path fill="#1988F7" 
	d="
M79.320763,249.002945 
	C78.948235,248.046692 78.927719,247.009323 78.899979,245.592560 
	C79.926735,237.095444 80.960716,228.977722 82.336655,220.516510 
	C83.705086,220.561096 85.280823,221.580063 85.672531,221.239029 
	C89.339989,218.046143 93.967201,215.206818 96.032768,211.112869 
	C98.597084,206.030350 101.379974,201.907120 106.275513,198.988419 
	C108.169235,197.859360 109.444107,195.692322 111.324890,193.918198 
	C112.432167,192.559219 113.215469,191.280212 114.081291,189.685791 
	C115.442810,188.246307 116.721817,187.122238 118.343918,185.938705 
	C121.071175,184.139938 123.363159,182.253448 125.858116,180.691101 
	C131.568909,177.115021 136.572647,172.006729 144.000000,172.000610 
	C142.921326,173.622696 141.912689,175.296844 140.752274,176.858170 
	C134.565155,185.182846 128.226135,193.397888 122.198067,201.835464 
	C120.408516,204.340332 119.456421,207.443527 118.061218,210.635056 
	C115.216553,213.520218 112.407715,216.017471 109.652115,218.572144 
	C106.416046,221.572235 103.063118,224.469528 100.053223,227.685043 
	C95.089050,232.988327 90.425972,238.572647 85.495071,243.908279 
	C83.768082,245.777023 81.625549,247.261734 79.320763,249.002945 
z"/>
<path fill="#2A87F2" 
	d="
M230.948776,52.888199 
	C240.035950,50.634861 249.123123,48.381527 258.624023,46.160080 
	C260.894135,51.910892 256.236267,53.991650 253.076111,56.944763 
	C249.614868,60.179268 246.236649,63.502434 242.800705,66.764259 
	C240.306564,69.132019 237.436966,71.193016 235.324371,73.858147 
	C227.328827,83.944901 219.660400,94.290749 211.680405,104.390160 
	C208.979309,107.808609 205.717667,110.784126 202.357300,113.979965 
	C201.831055,112.041756 201.529007,110.086227 201.520477,108.129410 
	C201.509109,105.522850 201.701691,102.913879 201.853226,100.308655 
	C201.962616,98.428040 202.147842,96.551849 202.205627,93.987854 
	C208.677979,84.763588 215.502625,76.407570 221.705765,67.613174 
	C225.028381,62.902550 230.608887,59.492344 230.948776,52.888199 
z"/>
<path fill="#1F8DF7" 
	d="
M144.286469,171.825272 
	C136.572647,172.006729 131.568909,177.115021 125.858116,180.691101 
	C123.363159,182.253448 121.071175,184.139938 118.403549,185.595795 
	C119.752083,183.036163 121.228577,180.626297 123.047409,178.510742 
	C127.259659,173.611298 132.134613,169.206482 135.846985,163.967682 
	C144.134384,152.272736 151.636261,140.021103 159.925247,128.327362 
	C165.182327,120.910873 171.279449,114.089836 177.348114,106.939026 
	C179.085144,106.021492 180.733246,104.185173 181.820190,104.472404 
	C188.490707,106.235092 190.671692,100.017570 194.917999,97.567337 
	C196.308197,96.765160 197.639374,95.860703 198.997543,95.003021 
	C193.324051,104.232002 188.912506,114.277657 180.754333,121.880112 
	C178.007477,124.439850 175.917297,127.737808 173.694489,130.819199 
	C169.476974,136.665787 165.412292,142.622375 161.225647,148.491562 
	C155.704208,156.232040 150.126465,163.932343 144.286469,171.825272 
z"/>
<path fill="#2591F7" 
	d="
M199.287842,94.870346 
	C197.639374,95.860703 196.308197,96.765160 194.917999,97.567337 
	C190.671692,100.017570 188.490707,106.235092 181.820190,104.472404 
	C180.733246,104.185173 179.085144,106.021492 177.348099,106.563705 
	C176.999039,105.500580 176.998291,104.750038 177.001007,103.611710 
	C177.531174,101.520096 177.729401,99.612511 178.638901,98.146111 
	C183.844574,89.753029 189.354340,81.545448 194.415756,73.068832 
	C195.359192,71.488838 194.732742,68.971466 194.830795,66.886696 
	C194.914276,66.472061 194.997757,66.057419 195.202896,65.347885 
	C204.610016,61.426479 213.895462,57.799980 223.515213,54.102245 
	C225.952591,53.667648 228.055695,53.304283 230.553772,52.914558 
	C230.608887,59.492344 225.028381,62.902550 221.705765,67.613174 
	C215.502625,76.407570 208.677979,84.763588 202.056290,93.652237 
	C201.193115,94.247520 200.385620,94.492599 199.287842,94.870346 
z"/>
<path fill="#3A66D5" 
	d="
M255.041870,243.549408 
	C255.158554,243.844818 255.091248,244.136414 255.023956,244.428009 
	C254.968597,244.133865 254.913239,243.839722 255.041870,243.549408 
z"/>
<path fill="#3A66D5" 
	d="
M324.935181,47.466110 
	C325.753387,47.111092 326.501892,47.091389 327.690063,47.344917 
	C328.753723,47.442890 329.377716,47.267628 330.001709,47.092369 
	C335.506653,48.447720 341.011597,49.803074 346.799561,51.350212 
	C347.403564,55.666145 345.350311,58.240784 342.018097,60.478737 
	C339.066895,62.460793 336.466370,65.037430 333.959839,67.595390 
	C326.570587,75.136269 319.321075,82.813904 311.982544,90.404808 
	C309.070923,93.416565 306.068909,96.340927 303.048523,99.656845 
	C294.925201,100.008606 286.861420,100.008606 278.797607,100.008606 
	C278.531494,99.553078 278.265411,99.097549 277.999298,98.642021 
	C279.799896,96.478409 281.482025,94.201096 283.426361,92.175430 
	C287.189667,88.254677 290.983795,84.348465 294.984406,80.674980 
	C298.706848,77.256866 302.720459,74.156448 306.595184,70.903389 
	C314.271515,64.458618 320.240570,56.660858 324.935181,47.466110 
z"/>
<path fill="#5D66DD" 
	d="
M364.977142,57.450218 
	C367.525848,58.081669 370.085815,59.105042 372.863159,60.365303 
	C372.035248,62.246548 370.547058,65.436684 370.016541,65.284676 
	C366.544373,64.289780 364.691162,61.662380 364.977142,57.450218 
z"/>
<path fill="#7BB1EF" 
	d="
M372.515808,154.013031 
	C372.185822,153.625641 372.138092,153.173035 372.066711,152.381485 
	C372.763611,152.045578 373.484131,152.048615 374.563538,152.036285 
	C374.922424,152.020889 374.929321,152.488403 374.922974,152.721924 
	C374.210419,153.286240 373.504211,153.617035 372.515808,154.013031 
z"/>
<path fill="#1D74EA" 
	d="
M84.904053,367.270386 
	C85.321732,366.892639 85.574303,366.700592 85.898514,366.236023 
	C86.452698,366.020325 86.885185,366.011261 87.641357,365.990784 
	C86.877144,366.974304 85.789246,367.969299 84.341736,368.966827 
	C84.251091,368.486908 84.520042,368.004425 84.904053,367.270386 
z"/>
<path fill="#1D99F9" 
	d="
M194.472321,66.910683 
	C194.732742,68.971466 195.359192,71.488838 194.415756,73.068832 
	C189.354340,81.545448 183.844574,89.753029 178.638901,98.146111 
	C177.729401,99.612511 177.531174,101.520096 176.658173,103.671753 
	C168.210785,109.362320 160.990021,115.478058 155.280212,123.417259 
	C149.219437,131.844421 142.820374,140.041534 136.277267,148.102280 
	C133.501282,151.522141 129.895721,154.255966 126.827911,157.455673 
	C124.436592,159.949799 122.296448,162.684464 120.040161,165.308350 
	C114.589195,171.647354 109.507683,178.363129 103.562935,184.199432 
	C98.970863,188.707733 93.295258,192.112366 88.101395,196.007675 
	C89.605591,191.186279 91.109795,186.364899 93.108231,181.224625 
	C93.763931,180.282242 93.925392,179.658722 94.086853,179.035217 
	C94.653297,177.551697 95.219734,176.068192 96.125824,174.136673 
	C96.692299,173.466400 96.858749,173.205582 96.964828,172.906204 
	C97.469460,171.422485 97.974091,169.938766 99.038101,168.297546 
	C100.741707,169.015854 101.885933,169.891663 103.636612,171.231659 
	C106.534523,167.512634 109.117012,163.908447 111.996819,160.559982 
	C119.084183,152.319199 126.508865,144.360794 133.404877,135.965958 
	C137.802582,130.612442 141.397568,124.607643 145.531937,119.027840 
	C152.444412,109.698662 159.658051,100.587822 166.380020,91.125854 
	C167.966812,88.892235 168.102463,85.627701 168.905670,82.837418 
	C177.308411,77.536499 185.711136,72.235588 194.472321,66.910683 
z"/>
<path fill="#1B92F8" 
	d="
M87.922211,196.339676 
	C93.295258,192.112366 98.970863,188.707733 103.562935,184.199432 
	C109.507683,178.363129 114.589195,171.647354 120.040161,165.308350 
	C122.296448,162.684464 124.436592,159.949799 126.827911,157.455673 
	C129.895721,154.255966 133.501282,151.522141 136.277267,148.102280 
	C142.820374,140.041534 149.219437,131.844421 155.280212,123.417259 
	C160.990021,115.478058 168.210785,109.362320 176.654724,104.059547 
	C176.998291,104.750038 176.999039,105.500580 176.999817,106.626434 
	C171.279449,114.089836 165.182327,120.910873 159.925247,128.327362 
	C151.636261,140.021103 144.134384,152.272736 135.846985,163.967682 
	C132.134613,169.206482 127.259659,173.611298 123.047409,178.510742 
	C121.228577,180.626297 119.752083,183.036163 118.060455,185.655273 
	C116.721817,187.122238 115.442810,188.246307 113.757385,189.765930 
	C112.567612,191.440369 111.784264,192.719269 111.000916,193.998169 
	C109.444107,195.692322 108.169235,197.859360 106.275513,198.988419 
	C101.379974,201.907120 98.597084,206.030350 96.032768,211.112869 
	C93.967201,215.206818 89.339989,218.046143 85.672531,221.239029 
	C85.280823,221.580063 83.705086,220.561096 82.375076,220.111084 
	C82.665092,216.964005 83.258652,213.878845 83.908401,210.417770 
	C85.224075,205.585114 86.483559,201.128403 87.922211,196.339676 
z"/>
<path fill="#1AA2FB" 
	d="
M168.574036,82.928787 
	C168.102463,85.627701 167.966812,88.892235 166.380020,91.125854 
	C159.658051,100.587822 152.444412,109.698662 145.531937,119.027840 
	C141.397568,124.607643 137.802582,130.612442 133.404877,135.965958 
	C126.508865,144.360794 119.084183,152.319199 111.996819,160.559982 
	C109.117012,163.908447 106.534523,167.512634 103.636612,171.231659 
	C101.885933,169.891663 100.741707,169.015854 99.273941,168.056305 
	C107.256035,154.047333 114.751785,139.550903 124.069679,126.339630 
	C136.061142,109.337624 151.064011,94.959488 168.574036,82.928787 
z"/>
<path fill="#1AA2FB" 
	d="
M93.864548,179.221481 
	C93.925392,179.658722 93.763931,180.282242 93.353470,180.964722 
	C93.283737,180.485046 93.462990,179.946396 93.864548,179.221481 
z"/>
<path fill="#1AA2FB" 
	d="
M96.778557,173.048401 
	C96.858749,173.205582 96.692299,173.466400 96.283676,173.831833 
	C96.197899,173.671371 96.361366,173.409912 96.778557,173.048401 
z"/>
<path fill="#356EDD" 
	d="
M329.668610,47.042702 
	C329.377716,47.267628 328.753723,47.442890 328.064148,47.367180 
	C328.444183,47.075150 328.889862,47.034092 329.668610,47.042702 
z"/>
<path fill="#1F8DF7" 
	d="
M111.324890,193.918198 
	C111.784264,192.719269 112.567612,191.440369 113.674866,190.081345 
	C113.215469,191.280212 112.432167,192.559219 111.324890,193.918198 
z"/>
</svg>
